%TF.GenerationSoftware,KiCad,Pcbnew,10.0.6*%
%TF.CreationDate,2026-10-11T01:55:47+02:00*%
%TF.ProjectId,b4-carrier-v2,62342d63-6172-4726-9965-722d76322e6b,rev?*%
%TF.SameCoordinates,Original*%
%TF.FileFunction,Legend,Bot*%
%TF.FilePolarity,Positive*%
%FSLAX46Y46*%
G04 Gerber Fmt 4.6, Leading zero omitted, Abs format (unit mm)*
G04 Created by KiCad (PCBNEW 10.0.6) date 2026-10-11 01:55:47*
%MOMM*%
%LPD*%
G01*
G04 APERTURE LIST*
%ADD10C,0.216000*%
%ADD11C,0.270000*%
%ADD12C,0.120000*%
%ADD13C,0.150000*%
G04 APERTURE END LIST*
D10*
X73585712Y-62915339D02*
X73414284Y-62972482D01*
X73414284Y-62972482D02*
X73357141Y-63029625D01*
X73357141Y-63029625D02*
X73299998Y-63143910D01*
X73299998Y-63143910D02*
X73299998Y-63315339D01*
X73299998Y-63315339D02*
X73357141Y-63429625D01*
X73357141Y-63429625D02*
X73414284Y-63486768D01*
X73414284Y-63486768D02*
X73528569Y-63543910D01*
X73528569Y-63543910D02*
X73985712Y-63543910D01*
X73985712Y-63543910D02*
X73985712Y-62343910D01*
X73985712Y-62343910D02*
X73585712Y-62343910D01*
X73585712Y-62343910D02*
X73471427Y-62401053D01*
X73471427Y-62401053D02*
X73414284Y-62458196D01*
X73414284Y-62458196D02*
X73357141Y-62572482D01*
X73357141Y-62572482D02*
X73357141Y-62686768D01*
X73357141Y-62686768D02*
X73414284Y-62801053D01*
X73414284Y-62801053D02*
X73471427Y-62858196D01*
X73471427Y-62858196D02*
X73585712Y-62915339D01*
X73585712Y-62915339D02*
X73985712Y-62915339D01*
X72271427Y-62743910D02*
X72271427Y-63543910D01*
X72557141Y-62286768D02*
X72842855Y-63143910D01*
X72842855Y-63143910D02*
X72099998Y-63143910D01*
X70157141Y-63543910D02*
X70728569Y-63543910D01*
X70728569Y-63543910D02*
X70728569Y-62343910D01*
X69757140Y-62915339D02*
X69357140Y-62915339D01*
X69185712Y-63543910D02*
X69757140Y-63543910D01*
X69757140Y-63543910D02*
X69757140Y-62343910D01*
X69757140Y-62343910D02*
X69185712Y-62343910D01*
X68671426Y-63543910D02*
X68671426Y-62343910D01*
X68671426Y-62343910D02*
X67985712Y-63543910D01*
X67985712Y-63543910D02*
X67985712Y-62343910D01*
X67471426Y-63486768D02*
X67299998Y-63543910D01*
X67299998Y-63543910D02*
X67014283Y-63543910D01*
X67014283Y-63543910D02*
X66899998Y-63486768D01*
X66899998Y-63486768D02*
X66842855Y-63429625D01*
X66842855Y-63429625D02*
X66785712Y-63315339D01*
X66785712Y-63315339D02*
X66785712Y-63201053D01*
X66785712Y-63201053D02*
X66842855Y-63086768D01*
X66842855Y-63086768D02*
X66899998Y-63029625D01*
X66899998Y-63029625D02*
X67014283Y-62972482D01*
X67014283Y-62972482D02*
X67242855Y-62915339D01*
X67242855Y-62915339D02*
X67357140Y-62858196D01*
X67357140Y-62858196D02*
X67414283Y-62801053D01*
X67414283Y-62801053D02*
X67471426Y-62686768D01*
X67471426Y-62686768D02*
X67471426Y-62572482D01*
X67471426Y-62572482D02*
X67414283Y-62458196D01*
X67414283Y-62458196D02*
X67357140Y-62401053D01*
X67357140Y-62401053D02*
X67242855Y-62343910D01*
X67242855Y-62343910D02*
X66957140Y-62343910D01*
X66957140Y-62343910D02*
X66785712Y-62401053D01*
X64671426Y-63429625D02*
X64728569Y-63486768D01*
X64728569Y-63486768D02*
X64899997Y-63543910D01*
X64899997Y-63543910D02*
X65014283Y-63543910D01*
X65014283Y-63543910D02*
X65185712Y-63486768D01*
X65185712Y-63486768D02*
X65299997Y-63372482D01*
X65299997Y-63372482D02*
X65357140Y-63258196D01*
X65357140Y-63258196D02*
X65414283Y-63029625D01*
X65414283Y-63029625D02*
X65414283Y-62858196D01*
X65414283Y-62858196D02*
X65357140Y-62629625D01*
X65357140Y-62629625D02*
X65299997Y-62515339D01*
X65299997Y-62515339D02*
X65185712Y-62401053D01*
X65185712Y-62401053D02*
X65014283Y-62343910D01*
X65014283Y-62343910D02*
X64899997Y-62343910D01*
X64899997Y-62343910D02*
X64728569Y-62401053D01*
X64728569Y-62401053D02*
X64671426Y-62458196D01*
X64214283Y-63201053D02*
X63642855Y-63201053D01*
X64328569Y-63543910D02*
X63928569Y-62343910D01*
X63928569Y-62343910D02*
X63528569Y-63543910D01*
X62442855Y-63543910D02*
X62842855Y-62972482D01*
X63128569Y-63543910D02*
X63128569Y-62343910D01*
X63128569Y-62343910D02*
X62671426Y-62343910D01*
X62671426Y-62343910D02*
X62557141Y-62401053D01*
X62557141Y-62401053D02*
X62499998Y-62458196D01*
X62499998Y-62458196D02*
X62442855Y-62572482D01*
X62442855Y-62572482D02*
X62442855Y-62743910D01*
X62442855Y-62743910D02*
X62499998Y-62858196D01*
X62499998Y-62858196D02*
X62557141Y-62915339D01*
X62557141Y-62915339D02*
X62671426Y-62972482D01*
X62671426Y-62972482D02*
X63128569Y-62972482D01*
X61242855Y-63543910D02*
X61642855Y-62972482D01*
X61928569Y-63543910D02*
X61928569Y-62343910D01*
X61928569Y-62343910D02*
X61471426Y-62343910D01*
X61471426Y-62343910D02*
X61357141Y-62401053D01*
X61357141Y-62401053D02*
X61299998Y-62458196D01*
X61299998Y-62458196D02*
X61242855Y-62572482D01*
X61242855Y-62572482D02*
X61242855Y-62743910D01*
X61242855Y-62743910D02*
X61299998Y-62858196D01*
X61299998Y-62858196D02*
X61357141Y-62915339D01*
X61357141Y-62915339D02*
X61471426Y-62972482D01*
X61471426Y-62972482D02*
X61928569Y-62972482D01*
X60728569Y-63543910D02*
X60728569Y-62343910D01*
X60157140Y-62915339D02*
X59757140Y-62915339D01*
X59585712Y-63543910D02*
X60157140Y-63543910D01*
X60157140Y-63543910D02*
X60157140Y-62343910D01*
X60157140Y-62343910D02*
X59585712Y-62343910D01*
X58385712Y-63543910D02*
X58785712Y-62972482D01*
X59071426Y-63543910D02*
X59071426Y-62343910D01*
X59071426Y-62343910D02*
X58614283Y-62343910D01*
X58614283Y-62343910D02*
X58499998Y-62401053D01*
X58499998Y-62401053D02*
X58442855Y-62458196D01*
X58442855Y-62458196D02*
X58385712Y-62572482D01*
X58385712Y-62572482D02*
X58385712Y-62743910D01*
X58385712Y-62743910D02*
X58442855Y-62858196D01*
X58442855Y-62858196D02*
X58499998Y-62915339D01*
X58499998Y-62915339D02*
X58614283Y-62972482D01*
X58614283Y-62972482D02*
X59071426Y-62972482D01*
X57071426Y-62743910D02*
X56785712Y-63543910D01*
X56785712Y-63543910D02*
X56499997Y-62743910D01*
X56099997Y-62458196D02*
X56042854Y-62401053D01*
X56042854Y-62401053D02*
X55928569Y-62343910D01*
X55928569Y-62343910D02*
X55642854Y-62343910D01*
X55642854Y-62343910D02*
X55528569Y-62401053D01*
X55528569Y-62401053D02*
X55471426Y-62458196D01*
X55471426Y-62458196D02*
X55414283Y-62572482D01*
X55414283Y-62572482D02*
X55414283Y-62686768D01*
X55414283Y-62686768D02*
X55471426Y-62858196D01*
X55471426Y-62858196D02*
X56157140Y-63543910D01*
X56157140Y-63543910D02*
X55414283Y-63543910D01*
X52557140Y-62743910D02*
X52557140Y-63715339D01*
X52557140Y-63715339D02*
X52614282Y-63829625D01*
X52614282Y-63829625D02*
X52671425Y-63886768D01*
X52671425Y-63886768D02*
X52785711Y-63943910D01*
X52785711Y-63943910D02*
X52957140Y-63943910D01*
X52957140Y-63943910D02*
X53071425Y-63886768D01*
X52557140Y-63486768D02*
X52671425Y-63543910D01*
X52671425Y-63543910D02*
X52899997Y-63543910D01*
X52899997Y-63543910D02*
X53014282Y-63486768D01*
X53014282Y-63486768D02*
X53071425Y-63429625D01*
X53071425Y-63429625D02*
X53128568Y-63315339D01*
X53128568Y-63315339D02*
X53128568Y-62972482D01*
X53128568Y-62972482D02*
X53071425Y-62858196D01*
X53071425Y-62858196D02*
X53014282Y-62801053D01*
X53014282Y-62801053D02*
X52899997Y-62743910D01*
X52899997Y-62743910D02*
X52671425Y-62743910D01*
X52671425Y-62743910D02*
X52557140Y-62801053D01*
X51985711Y-63543910D02*
X51985711Y-62743910D01*
X51985711Y-62343910D02*
X52042854Y-62401053D01*
X52042854Y-62401053D02*
X51985711Y-62458196D01*
X51985711Y-62458196D02*
X51928568Y-62401053D01*
X51928568Y-62401053D02*
X51985711Y-62343910D01*
X51985711Y-62343910D02*
X51985711Y-62458196D01*
X51585711Y-62743910D02*
X51128568Y-62743910D01*
X51414282Y-62343910D02*
X51414282Y-63372482D01*
X51414282Y-63372482D02*
X51357139Y-63486768D01*
X51357139Y-63486768D02*
X51242854Y-63543910D01*
X51242854Y-63543910D02*
X51128568Y-63543910D01*
X50728568Y-63543910D02*
X50728568Y-62343910D01*
X50214283Y-63543910D02*
X50214283Y-62915339D01*
X50214283Y-62915339D02*
X50271425Y-62801053D01*
X50271425Y-62801053D02*
X50385711Y-62743910D01*
X50385711Y-62743910D02*
X50557140Y-62743910D01*
X50557140Y-62743910D02*
X50671425Y-62801053D01*
X50671425Y-62801053D02*
X50728568Y-62858196D01*
X49128569Y-62743910D02*
X49128569Y-63543910D01*
X49642854Y-62743910D02*
X49642854Y-63372482D01*
X49642854Y-63372482D02*
X49585711Y-63486768D01*
X49585711Y-63486768D02*
X49471426Y-63543910D01*
X49471426Y-63543910D02*
X49299997Y-63543910D01*
X49299997Y-63543910D02*
X49185711Y-63486768D01*
X49185711Y-63486768D02*
X49128569Y-63429625D01*
X48557140Y-63543910D02*
X48557140Y-62343910D01*
X48557140Y-62801053D02*
X48442855Y-62743910D01*
X48442855Y-62743910D02*
X48214283Y-62743910D01*
X48214283Y-62743910D02*
X48099997Y-62801053D01*
X48099997Y-62801053D02*
X48042855Y-62858196D01*
X48042855Y-62858196D02*
X47985712Y-62972482D01*
X47985712Y-62972482D02*
X47985712Y-63315339D01*
X47985712Y-63315339D02*
X48042855Y-63429625D01*
X48042855Y-63429625D02*
X48099997Y-63486768D01*
X48099997Y-63486768D02*
X48214283Y-63543910D01*
X48214283Y-63543910D02*
X48442855Y-63543910D01*
X48442855Y-63543910D02*
X48557140Y-63486768D01*
X47471426Y-63429625D02*
X47414283Y-63486768D01*
X47414283Y-63486768D02*
X47471426Y-63543910D01*
X47471426Y-63543910D02*
X47528569Y-63486768D01*
X47528569Y-63486768D02*
X47471426Y-63429625D01*
X47471426Y-63429625D02*
X47471426Y-63543910D01*
X46385712Y-63486768D02*
X46499997Y-63543910D01*
X46499997Y-63543910D02*
X46728569Y-63543910D01*
X46728569Y-63543910D02*
X46842854Y-63486768D01*
X46842854Y-63486768D02*
X46899997Y-63429625D01*
X46899997Y-63429625D02*
X46957140Y-63315339D01*
X46957140Y-63315339D02*
X46957140Y-62972482D01*
X46957140Y-62972482D02*
X46899997Y-62858196D01*
X46899997Y-62858196D02*
X46842854Y-62801053D01*
X46842854Y-62801053D02*
X46728569Y-62743910D01*
X46728569Y-62743910D02*
X46499997Y-62743910D01*
X46499997Y-62743910D02*
X46385712Y-62801053D01*
X45699998Y-63543910D02*
X45814283Y-63486768D01*
X45814283Y-63486768D02*
X45871426Y-63429625D01*
X45871426Y-63429625D02*
X45928569Y-63315339D01*
X45928569Y-63315339D02*
X45928569Y-62972482D01*
X45928569Y-62972482D02*
X45871426Y-62858196D01*
X45871426Y-62858196D02*
X45814283Y-62801053D01*
X45814283Y-62801053D02*
X45699998Y-62743910D01*
X45699998Y-62743910D02*
X45528569Y-62743910D01*
X45528569Y-62743910D02*
X45414283Y-62801053D01*
X45414283Y-62801053D02*
X45357141Y-62858196D01*
X45357141Y-62858196D02*
X45299998Y-62972482D01*
X45299998Y-62972482D02*
X45299998Y-63315339D01*
X45299998Y-63315339D02*
X45357141Y-63429625D01*
X45357141Y-63429625D02*
X45414283Y-63486768D01*
X45414283Y-63486768D02*
X45528569Y-63543910D01*
X45528569Y-63543910D02*
X45699998Y-63543910D01*
X44785712Y-63543910D02*
X44785712Y-62743910D01*
X44785712Y-62858196D02*
X44728569Y-62801053D01*
X44728569Y-62801053D02*
X44614284Y-62743910D01*
X44614284Y-62743910D02*
X44442855Y-62743910D01*
X44442855Y-62743910D02*
X44328569Y-62801053D01*
X44328569Y-62801053D02*
X44271427Y-62915339D01*
X44271427Y-62915339D02*
X44271427Y-63543910D01*
X44271427Y-62915339D02*
X44214284Y-62801053D01*
X44214284Y-62801053D02*
X44099998Y-62743910D01*
X44099998Y-62743910D02*
X43928569Y-62743910D01*
X43928569Y-62743910D02*
X43814284Y-62801053D01*
X43814284Y-62801053D02*
X43757141Y-62915339D01*
X43757141Y-62915339D02*
X43757141Y-63543910D01*
X42328569Y-62286768D02*
X43357141Y-63829625D01*
X41757141Y-63543910D02*
X41871426Y-63486768D01*
X41871426Y-63486768D02*
X41928569Y-63372482D01*
X41928569Y-63372482D02*
X41928569Y-62343910D01*
X40785713Y-63543910D02*
X40785713Y-62915339D01*
X40785713Y-62915339D02*
X40842855Y-62801053D01*
X40842855Y-62801053D02*
X40957141Y-62743910D01*
X40957141Y-62743910D02*
X41185713Y-62743910D01*
X41185713Y-62743910D02*
X41299998Y-62801053D01*
X40785713Y-63486768D02*
X40899998Y-63543910D01*
X40899998Y-63543910D02*
X41185713Y-63543910D01*
X41185713Y-63543910D02*
X41299998Y-63486768D01*
X41299998Y-63486768D02*
X41357141Y-63372482D01*
X41357141Y-63372482D02*
X41357141Y-63258196D01*
X41357141Y-63258196D02*
X41299998Y-63143910D01*
X41299998Y-63143910D02*
X41185713Y-63086768D01*
X41185713Y-63086768D02*
X40899998Y-63086768D01*
X40899998Y-63086768D02*
X40785713Y-63029625D01*
X40214284Y-63543910D02*
X40214284Y-62743910D01*
X40214284Y-62972482D02*
X40157141Y-62858196D01*
X40157141Y-62858196D02*
X40099999Y-62801053D01*
X40099999Y-62801053D02*
X39985713Y-62743910D01*
X39985713Y-62743910D02*
X39871427Y-62743910D01*
X39528570Y-63486768D02*
X39414284Y-63543910D01*
X39414284Y-63543910D02*
X39185713Y-63543910D01*
X39185713Y-63543910D02*
X39071427Y-63486768D01*
X39071427Y-63486768D02*
X39014284Y-63372482D01*
X39014284Y-63372482D02*
X39014284Y-63315339D01*
X39014284Y-63315339D02*
X39071427Y-63201053D01*
X39071427Y-63201053D02*
X39185713Y-63143910D01*
X39185713Y-63143910D02*
X39357142Y-63143910D01*
X39357142Y-63143910D02*
X39471427Y-63086768D01*
X39471427Y-63086768D02*
X39528570Y-62972482D01*
X39528570Y-62972482D02*
X39528570Y-62915339D01*
X39528570Y-62915339D02*
X39471427Y-62801053D01*
X39471427Y-62801053D02*
X39357142Y-62743910D01*
X39357142Y-62743910D02*
X39185713Y-62743910D01*
X39185713Y-62743910D02*
X39071427Y-62801053D01*
X38614284Y-62743910D02*
X37985713Y-62743910D01*
X37985713Y-62743910D02*
X38614284Y-63543910D01*
X38614284Y-63543910D02*
X37985713Y-63543910D01*
X37014284Y-62743910D02*
X37014284Y-63543910D01*
X37528569Y-62743910D02*
X37528569Y-63372482D01*
X37528569Y-63372482D02*
X37471426Y-63486768D01*
X37471426Y-63486768D02*
X37357141Y-63543910D01*
X37357141Y-63543910D02*
X37185712Y-63543910D01*
X37185712Y-63543910D02*
X37071426Y-63486768D01*
X37071426Y-63486768D02*
X37014284Y-63429625D01*
X35585712Y-62286768D02*
X36614284Y-63829625D01*
X35014284Y-63543910D02*
X35128569Y-63486768D01*
X35128569Y-63486768D02*
X35185712Y-63372482D01*
X35185712Y-63372482D02*
X35185712Y-62343910D01*
X34671427Y-62743910D02*
X34042856Y-62743910D01*
X34042856Y-62743910D02*
X34671427Y-63543910D01*
X34671427Y-63543910D02*
X34042856Y-63543910D01*
X33585712Y-63086768D02*
X32671427Y-63086768D01*
X31585713Y-63486768D02*
X31699998Y-63543910D01*
X31699998Y-63543910D02*
X31928570Y-63543910D01*
X31928570Y-63543910D02*
X32042855Y-63486768D01*
X32042855Y-63486768D02*
X32099998Y-63429625D01*
X32099998Y-63429625D02*
X32157141Y-63315339D01*
X32157141Y-63315339D02*
X32157141Y-62972482D01*
X32157141Y-62972482D02*
X32099998Y-62858196D01*
X32099998Y-62858196D02*
X32042855Y-62801053D01*
X32042855Y-62801053D02*
X31928570Y-62743910D01*
X31928570Y-62743910D02*
X31699998Y-62743910D01*
X31699998Y-62743910D02*
X31585713Y-62801053D01*
X30557142Y-63543910D02*
X30557142Y-62915339D01*
X30557142Y-62915339D02*
X30614284Y-62801053D01*
X30614284Y-62801053D02*
X30728570Y-62743910D01*
X30728570Y-62743910D02*
X30957142Y-62743910D01*
X30957142Y-62743910D02*
X31071427Y-62801053D01*
X30557142Y-63486768D02*
X30671427Y-63543910D01*
X30671427Y-63543910D02*
X30957142Y-63543910D01*
X30957142Y-63543910D02*
X31071427Y-63486768D01*
X31071427Y-63486768D02*
X31128570Y-63372482D01*
X31128570Y-63372482D02*
X31128570Y-63258196D01*
X31128570Y-63258196D02*
X31071427Y-63143910D01*
X31071427Y-63143910D02*
X30957142Y-63086768D01*
X30957142Y-63086768D02*
X30671427Y-63086768D01*
X30671427Y-63086768D02*
X30557142Y-63029625D01*
X29985713Y-63543910D02*
X29985713Y-62743910D01*
X29985713Y-62858196D02*
X29928570Y-62801053D01*
X29928570Y-62801053D02*
X29814285Y-62743910D01*
X29814285Y-62743910D02*
X29642856Y-62743910D01*
X29642856Y-62743910D02*
X29528570Y-62801053D01*
X29528570Y-62801053D02*
X29471428Y-62915339D01*
X29471428Y-62915339D02*
X29471428Y-63543910D01*
X29471428Y-62915339D02*
X29414285Y-62801053D01*
X29414285Y-62801053D02*
X29299999Y-62743910D01*
X29299999Y-62743910D02*
X29128570Y-62743910D01*
X29128570Y-62743910D02*
X29014285Y-62801053D01*
X29014285Y-62801053D02*
X28957142Y-62915339D01*
X28957142Y-62915339D02*
X28957142Y-63543910D01*
X27928570Y-63486768D02*
X28042856Y-63543910D01*
X28042856Y-63543910D02*
X28271428Y-63543910D01*
X28271428Y-63543910D02*
X28385713Y-63486768D01*
X28385713Y-63486768D02*
X28442856Y-63372482D01*
X28442856Y-63372482D02*
X28442856Y-62915339D01*
X28442856Y-62915339D02*
X28385713Y-62801053D01*
X28385713Y-62801053D02*
X28271428Y-62743910D01*
X28271428Y-62743910D02*
X28042856Y-62743910D01*
X28042856Y-62743910D02*
X27928570Y-62801053D01*
X27928570Y-62801053D02*
X27871428Y-62915339D01*
X27871428Y-62915339D02*
X27871428Y-63029625D01*
X27871428Y-63029625D02*
X28442856Y-63143910D01*
X27357142Y-63543910D02*
X27357142Y-62743910D01*
X27357142Y-62972482D02*
X27299999Y-62858196D01*
X27299999Y-62858196D02*
X27242857Y-62801053D01*
X27242857Y-62801053D02*
X27128571Y-62743910D01*
X27128571Y-62743910D02*
X27014285Y-62743910D01*
X26100000Y-63543910D02*
X26100000Y-62915339D01*
X26100000Y-62915339D02*
X26157142Y-62801053D01*
X26157142Y-62801053D02*
X26271428Y-62743910D01*
X26271428Y-62743910D02*
X26500000Y-62743910D01*
X26500000Y-62743910D02*
X26614285Y-62801053D01*
X26100000Y-63486768D02*
X26214285Y-63543910D01*
X26214285Y-63543910D02*
X26500000Y-63543910D01*
X26500000Y-63543910D02*
X26614285Y-63486768D01*
X26614285Y-63486768D02*
X26671428Y-63372482D01*
X26671428Y-63372482D02*
X26671428Y-63258196D01*
X26671428Y-63258196D02*
X26614285Y-63143910D01*
X26614285Y-63143910D02*
X26500000Y-63086768D01*
X26500000Y-63086768D02*
X26214285Y-63086768D01*
X26214285Y-63086768D02*
X26100000Y-63029625D01*
X25528571Y-63086768D02*
X24614286Y-63086768D01*
X24042857Y-63543910D02*
X24042857Y-62343910D01*
X24042857Y-62801053D02*
X23928572Y-62743910D01*
X23928572Y-62743910D02*
X23700000Y-62743910D01*
X23700000Y-62743910D02*
X23585714Y-62801053D01*
X23585714Y-62801053D02*
X23528572Y-62858196D01*
X23528572Y-62858196D02*
X23471429Y-62972482D01*
X23471429Y-62972482D02*
X23471429Y-63315339D01*
X23471429Y-63315339D02*
X23528572Y-63429625D01*
X23528572Y-63429625D02*
X23585714Y-63486768D01*
X23585714Y-63486768D02*
X23700000Y-63543910D01*
X23700000Y-63543910D02*
X23928572Y-63543910D01*
X23928572Y-63543910D02*
X24042857Y-63486768D01*
X22957143Y-63543910D02*
X22957143Y-62743910D01*
X22957143Y-62972482D02*
X22900000Y-62858196D01*
X22900000Y-62858196D02*
X22842858Y-62801053D01*
X22842858Y-62801053D02*
X22728572Y-62743910D01*
X22728572Y-62743910D02*
X22614286Y-62743910D01*
X22214286Y-63543910D02*
X22214286Y-62743910D01*
X22214286Y-62343910D02*
X22271429Y-62401053D01*
X22271429Y-62401053D02*
X22214286Y-62458196D01*
X22214286Y-62458196D02*
X22157143Y-62401053D01*
X22157143Y-62401053D02*
X22214286Y-62343910D01*
X22214286Y-62343910D02*
X22214286Y-62458196D01*
X21128572Y-63543910D02*
X21128572Y-62343910D01*
X21128572Y-63486768D02*
X21242857Y-63543910D01*
X21242857Y-63543910D02*
X21471429Y-63543910D01*
X21471429Y-63543910D02*
X21585714Y-63486768D01*
X21585714Y-63486768D02*
X21642857Y-63429625D01*
X21642857Y-63429625D02*
X21700000Y-63315339D01*
X21700000Y-63315339D02*
X21700000Y-62972482D01*
X21700000Y-62972482D02*
X21642857Y-62858196D01*
X21642857Y-62858196D02*
X21585714Y-62801053D01*
X21585714Y-62801053D02*
X21471429Y-62743910D01*
X21471429Y-62743910D02*
X21242857Y-62743910D01*
X21242857Y-62743910D02*
X21128572Y-62801053D01*
X20042858Y-62743910D02*
X20042858Y-63715339D01*
X20042858Y-63715339D02*
X20100000Y-63829625D01*
X20100000Y-63829625D02*
X20157143Y-63886768D01*
X20157143Y-63886768D02*
X20271429Y-63943910D01*
X20271429Y-63943910D02*
X20442858Y-63943910D01*
X20442858Y-63943910D02*
X20557143Y-63886768D01*
X20042858Y-63486768D02*
X20157143Y-63543910D01*
X20157143Y-63543910D02*
X20385715Y-63543910D01*
X20385715Y-63543910D02*
X20500000Y-63486768D01*
X20500000Y-63486768D02*
X20557143Y-63429625D01*
X20557143Y-63429625D02*
X20614286Y-63315339D01*
X20614286Y-63315339D02*
X20614286Y-62972482D01*
X20614286Y-62972482D02*
X20557143Y-62858196D01*
X20557143Y-62858196D02*
X20500000Y-62801053D01*
X20500000Y-62801053D02*
X20385715Y-62743910D01*
X20385715Y-62743910D02*
X20157143Y-62743910D01*
X20157143Y-62743910D02*
X20042858Y-62801053D01*
X19014286Y-63486768D02*
X19128572Y-63543910D01*
X19128572Y-63543910D02*
X19357144Y-63543910D01*
X19357144Y-63543910D02*
X19471429Y-63486768D01*
X19471429Y-63486768D02*
X19528572Y-63372482D01*
X19528572Y-63372482D02*
X19528572Y-62915339D01*
X19528572Y-62915339D02*
X19471429Y-62801053D01*
X19471429Y-62801053D02*
X19357144Y-62743910D01*
X19357144Y-62743910D02*
X19128572Y-62743910D01*
X19128572Y-62743910D02*
X19014286Y-62801053D01*
X19014286Y-62801053D02*
X18957144Y-62915339D01*
X18957144Y-62915339D02*
X18957144Y-63029625D01*
X18957144Y-63029625D02*
X19528572Y-63143910D01*
D11*
X64428570Y-37322745D02*
X64357142Y-37251317D01*
X64357142Y-37251317D02*
X64214285Y-37179888D01*
X64214285Y-37179888D02*
X63857142Y-37179888D01*
X63857142Y-37179888D02*
X63714285Y-37251317D01*
X63714285Y-37251317D02*
X63642856Y-37322745D01*
X63642856Y-37322745D02*
X63571427Y-37465602D01*
X63571427Y-37465602D02*
X63571427Y-37608460D01*
X63571427Y-37608460D02*
X63642856Y-37822745D01*
X63642856Y-37822745D02*
X64499999Y-38679888D01*
X64499999Y-38679888D02*
X63571427Y-38679888D01*
X63071428Y-38679888D02*
X62285714Y-37679888D01*
X63071428Y-37679888D02*
X62285714Y-38679888D01*
X59785713Y-38679888D02*
X60642856Y-38679888D01*
X60214285Y-38679888D02*
X60214285Y-37179888D01*
X60214285Y-37179888D02*
X60357142Y-37394174D01*
X60357142Y-37394174D02*
X60499999Y-37537031D01*
X60499999Y-37537031D02*
X60642856Y-37608460D01*
X58928571Y-37822745D02*
X59071428Y-37751317D01*
X59071428Y-37751317D02*
X59142857Y-37679888D01*
X59142857Y-37679888D02*
X59214285Y-37537031D01*
X59214285Y-37537031D02*
X59214285Y-37465602D01*
X59214285Y-37465602D02*
X59142857Y-37322745D01*
X59142857Y-37322745D02*
X59071428Y-37251317D01*
X59071428Y-37251317D02*
X58928571Y-37179888D01*
X58928571Y-37179888D02*
X58642857Y-37179888D01*
X58642857Y-37179888D02*
X58500000Y-37251317D01*
X58500000Y-37251317D02*
X58428571Y-37322745D01*
X58428571Y-37322745D02*
X58357142Y-37465602D01*
X58357142Y-37465602D02*
X58357142Y-37537031D01*
X58357142Y-37537031D02*
X58428571Y-37679888D01*
X58428571Y-37679888D02*
X58500000Y-37751317D01*
X58500000Y-37751317D02*
X58642857Y-37822745D01*
X58642857Y-37822745D02*
X58928571Y-37822745D01*
X58928571Y-37822745D02*
X59071428Y-37894174D01*
X59071428Y-37894174D02*
X59142857Y-37965602D01*
X59142857Y-37965602D02*
X59214285Y-38108460D01*
X59214285Y-38108460D02*
X59214285Y-38394174D01*
X59214285Y-38394174D02*
X59142857Y-38537031D01*
X59142857Y-38537031D02*
X59071428Y-38608460D01*
X59071428Y-38608460D02*
X58928571Y-38679888D01*
X58928571Y-38679888D02*
X58642857Y-38679888D01*
X58642857Y-38679888D02*
X58500000Y-38608460D01*
X58500000Y-38608460D02*
X58428571Y-38537031D01*
X58428571Y-38537031D02*
X58357142Y-38394174D01*
X58357142Y-38394174D02*
X58357142Y-38108460D01*
X58357142Y-38108460D02*
X58428571Y-37965602D01*
X58428571Y-37965602D02*
X58500000Y-37894174D01*
X58500000Y-37894174D02*
X58642857Y-37822745D01*
X57071429Y-37179888D02*
X57357143Y-37179888D01*
X57357143Y-37179888D02*
X57500000Y-37251317D01*
X57500000Y-37251317D02*
X57571429Y-37322745D01*
X57571429Y-37322745D02*
X57714286Y-37537031D01*
X57714286Y-37537031D02*
X57785714Y-37822745D01*
X57785714Y-37822745D02*
X57785714Y-38394174D01*
X57785714Y-38394174D02*
X57714286Y-38537031D01*
X57714286Y-38537031D02*
X57642857Y-38608460D01*
X57642857Y-38608460D02*
X57500000Y-38679888D01*
X57500000Y-38679888D02*
X57214286Y-38679888D01*
X57214286Y-38679888D02*
X57071429Y-38608460D01*
X57071429Y-38608460D02*
X57000000Y-38537031D01*
X57000000Y-38537031D02*
X56928571Y-38394174D01*
X56928571Y-38394174D02*
X56928571Y-38037031D01*
X56928571Y-38037031D02*
X57000000Y-37894174D01*
X57000000Y-37894174D02*
X57071429Y-37822745D01*
X57071429Y-37822745D02*
X57214286Y-37751317D01*
X57214286Y-37751317D02*
X57500000Y-37751317D01*
X57500000Y-37751317D02*
X57642857Y-37822745D01*
X57642857Y-37822745D02*
X57714286Y-37894174D01*
X57714286Y-37894174D02*
X57785714Y-38037031D01*
X55571429Y-37179888D02*
X56285715Y-37179888D01*
X56285715Y-37179888D02*
X56357143Y-37894174D01*
X56357143Y-37894174D02*
X56285715Y-37822745D01*
X56285715Y-37822745D02*
X56142858Y-37751317D01*
X56142858Y-37751317D02*
X55785715Y-37751317D01*
X55785715Y-37751317D02*
X55642858Y-37822745D01*
X55642858Y-37822745D02*
X55571429Y-37894174D01*
X55571429Y-37894174D02*
X55500000Y-38037031D01*
X55500000Y-38037031D02*
X55500000Y-38394174D01*
X55500000Y-38394174D02*
X55571429Y-38537031D01*
X55571429Y-38537031D02*
X55642858Y-38608460D01*
X55642858Y-38608460D02*
X55785715Y-38679888D01*
X55785715Y-38679888D02*
X56142858Y-38679888D01*
X56142858Y-38679888D02*
X56285715Y-38608460D01*
X56285715Y-38608460D02*
X56357143Y-38537031D01*
X54571429Y-37179888D02*
X54428572Y-37179888D01*
X54428572Y-37179888D02*
X54285715Y-37251317D01*
X54285715Y-37251317D02*
X54214287Y-37322745D01*
X54214287Y-37322745D02*
X54142858Y-37465602D01*
X54142858Y-37465602D02*
X54071429Y-37751317D01*
X54071429Y-37751317D02*
X54071429Y-38108460D01*
X54071429Y-38108460D02*
X54142858Y-38394174D01*
X54142858Y-38394174D02*
X54214287Y-38537031D01*
X54214287Y-38537031D02*
X54285715Y-38608460D01*
X54285715Y-38608460D02*
X54428572Y-38679888D01*
X54428572Y-38679888D02*
X54571429Y-38679888D01*
X54571429Y-38679888D02*
X54714287Y-38608460D01*
X54714287Y-38608460D02*
X54785715Y-38537031D01*
X54785715Y-38537031D02*
X54857144Y-38394174D01*
X54857144Y-38394174D02*
X54928572Y-38108460D01*
X54928572Y-38108460D02*
X54928572Y-37751317D01*
X54928572Y-37751317D02*
X54857144Y-37465602D01*
X54857144Y-37465602D02*
X54785715Y-37322745D01*
X54785715Y-37322745D02*
X54714287Y-37251317D01*
X54714287Y-37251317D02*
X54571429Y-37179888D01*
X52285716Y-38108460D02*
X51142859Y-38108460D01*
X49285716Y-38679888D02*
X49285716Y-37179888D01*
X49285716Y-37179888D02*
X48714287Y-37179888D01*
X48714287Y-37179888D02*
X48571430Y-37251317D01*
X48571430Y-37251317D02*
X48500001Y-37322745D01*
X48500001Y-37322745D02*
X48428573Y-37465602D01*
X48428573Y-37465602D02*
X48428573Y-37679888D01*
X48428573Y-37679888D02*
X48500001Y-37822745D01*
X48500001Y-37822745D02*
X48571430Y-37894174D01*
X48571430Y-37894174D02*
X48714287Y-37965602D01*
X48714287Y-37965602D02*
X49285716Y-37965602D01*
X47500001Y-37179888D02*
X47214287Y-37179888D01*
X47214287Y-37179888D02*
X47071430Y-37251317D01*
X47071430Y-37251317D02*
X46928573Y-37394174D01*
X46928573Y-37394174D02*
X46857144Y-37679888D01*
X46857144Y-37679888D02*
X46857144Y-38179888D01*
X46857144Y-38179888D02*
X46928573Y-38465602D01*
X46928573Y-38465602D02*
X47071430Y-38608460D01*
X47071430Y-38608460D02*
X47214287Y-38679888D01*
X47214287Y-38679888D02*
X47500001Y-38679888D01*
X47500001Y-38679888D02*
X47642859Y-38608460D01*
X47642859Y-38608460D02*
X47785716Y-38465602D01*
X47785716Y-38465602D02*
X47857144Y-38179888D01*
X47857144Y-38179888D02*
X47857144Y-37679888D01*
X47857144Y-37679888D02*
X47785716Y-37394174D01*
X47785716Y-37394174D02*
X47642859Y-37251317D01*
X47642859Y-37251317D02*
X47500001Y-37179888D01*
X45500001Y-38679888D02*
X46214287Y-38679888D01*
X46214287Y-38679888D02*
X46214287Y-37179888D01*
X45000001Y-37179888D02*
X45000001Y-38394174D01*
X45000001Y-38394174D02*
X44928572Y-38537031D01*
X44928572Y-38537031D02*
X44857144Y-38608460D01*
X44857144Y-38608460D02*
X44714286Y-38679888D01*
X44714286Y-38679888D02*
X44428572Y-38679888D01*
X44428572Y-38679888D02*
X44285715Y-38608460D01*
X44285715Y-38608460D02*
X44214286Y-38537031D01*
X44214286Y-38537031D02*
X44142858Y-38394174D01*
X44142858Y-38394174D02*
X44142858Y-37179888D01*
X43428572Y-38679888D02*
X43428572Y-37179888D01*
X43428572Y-37179888D02*
X42571429Y-38679888D01*
X42571429Y-38679888D02*
X42571429Y-37179888D01*
X41071428Y-37251317D02*
X41214286Y-37179888D01*
X41214286Y-37179888D02*
X41428571Y-37179888D01*
X41428571Y-37179888D02*
X41642857Y-37251317D01*
X41642857Y-37251317D02*
X41785714Y-37394174D01*
X41785714Y-37394174D02*
X41857143Y-37537031D01*
X41857143Y-37537031D02*
X41928571Y-37822745D01*
X41928571Y-37822745D02*
X41928571Y-38037031D01*
X41928571Y-38037031D02*
X41857143Y-38322745D01*
X41857143Y-38322745D02*
X41785714Y-38465602D01*
X41785714Y-38465602D02*
X41642857Y-38608460D01*
X41642857Y-38608460D02*
X41428571Y-38679888D01*
X41428571Y-38679888D02*
X41285714Y-38679888D01*
X41285714Y-38679888D02*
X41071428Y-38608460D01*
X41071428Y-38608460D02*
X41000000Y-38537031D01*
X41000000Y-38537031D02*
X41000000Y-38037031D01*
X41000000Y-38037031D02*
X41285714Y-38037031D01*
X38714286Y-37894174D02*
X38500000Y-37965602D01*
X38500000Y-37965602D02*
X38428571Y-38037031D01*
X38428571Y-38037031D02*
X38357143Y-38179888D01*
X38357143Y-38179888D02*
X38357143Y-38394174D01*
X38357143Y-38394174D02*
X38428571Y-38537031D01*
X38428571Y-38537031D02*
X38500000Y-38608460D01*
X38500000Y-38608460D02*
X38642857Y-38679888D01*
X38642857Y-38679888D02*
X39214286Y-38679888D01*
X39214286Y-38679888D02*
X39214286Y-37179888D01*
X39214286Y-37179888D02*
X38714286Y-37179888D01*
X38714286Y-37179888D02*
X38571429Y-37251317D01*
X38571429Y-37251317D02*
X38500000Y-37322745D01*
X38500000Y-37322745D02*
X38428571Y-37465602D01*
X38428571Y-37465602D02*
X38428571Y-37608460D01*
X38428571Y-37608460D02*
X38500000Y-37751317D01*
X38500000Y-37751317D02*
X38571429Y-37822745D01*
X38571429Y-37822745D02*
X38714286Y-37894174D01*
X38714286Y-37894174D02*
X39214286Y-37894174D01*
X37714286Y-37894174D02*
X37214286Y-37894174D01*
X37000000Y-38679888D02*
X37714286Y-38679888D01*
X37714286Y-38679888D02*
X37714286Y-37179888D01*
X37714286Y-37179888D02*
X37000000Y-37179888D01*
X36428571Y-38251317D02*
X35714286Y-38251317D01*
X36571428Y-38679888D02*
X36071428Y-37179888D01*
X36071428Y-37179888D02*
X35571428Y-38679888D01*
X34214286Y-38537031D02*
X34285714Y-38608460D01*
X34285714Y-38608460D02*
X34500000Y-38679888D01*
X34500000Y-38679888D02*
X34642857Y-38679888D01*
X34642857Y-38679888D02*
X34857143Y-38608460D01*
X34857143Y-38608460D02*
X35000000Y-38465602D01*
X35000000Y-38465602D02*
X35071429Y-38322745D01*
X35071429Y-38322745D02*
X35142857Y-38037031D01*
X35142857Y-38037031D02*
X35142857Y-37822745D01*
X35142857Y-37822745D02*
X35071429Y-37537031D01*
X35071429Y-37537031D02*
X35000000Y-37394174D01*
X35000000Y-37394174D02*
X34857143Y-37251317D01*
X34857143Y-37251317D02*
X34642857Y-37179888D01*
X34642857Y-37179888D02*
X34500000Y-37179888D01*
X34500000Y-37179888D02*
X34285714Y-37251317D01*
X34285714Y-37251317D02*
X34214286Y-37322745D01*
X33571429Y-38679888D02*
X33571429Y-37179888D01*
X33571429Y-37894174D02*
X32714286Y-37894174D01*
X32714286Y-38679888D02*
X32714286Y-37179888D01*
X32214285Y-37179888D02*
X31357143Y-37179888D01*
X31785714Y-38679888D02*
X31785714Y-37179888D01*
X30857143Y-37894174D02*
X30357143Y-37894174D01*
X30142857Y-38679888D02*
X30857143Y-38679888D01*
X30857143Y-38679888D02*
X30857143Y-37179888D01*
X30857143Y-37179888D02*
X30142857Y-37179888D01*
X29500000Y-38679888D02*
X29500000Y-37179888D01*
X29500000Y-37179888D02*
X28642857Y-38679888D01*
X28642857Y-38679888D02*
X28642857Y-37179888D01*
D12*
X47128571Y-37474807D02*
X47014285Y-37512902D01*
X47014285Y-37512902D02*
X46976190Y-37550998D01*
X46976190Y-37550998D02*
X46938094Y-37627188D01*
X46938094Y-37627188D02*
X46938094Y-37741474D01*
X46938094Y-37741474D02*
X46976190Y-37817664D01*
X46976190Y-37817664D02*
X47014285Y-37855760D01*
X47014285Y-37855760D02*
X47090475Y-37893855D01*
X47090475Y-37893855D02*
X47395237Y-37893855D01*
X47395237Y-37893855D02*
X47395237Y-37093855D01*
X47395237Y-37093855D02*
X47128571Y-37093855D01*
X47128571Y-37093855D02*
X47052380Y-37131950D01*
X47052380Y-37131950D02*
X47014285Y-37170045D01*
X47014285Y-37170045D02*
X46976190Y-37246236D01*
X46976190Y-37246236D02*
X46976190Y-37322426D01*
X46976190Y-37322426D02*
X47014285Y-37398617D01*
X47014285Y-37398617D02*
X47052380Y-37436712D01*
X47052380Y-37436712D02*
X47128571Y-37474807D01*
X47128571Y-37474807D02*
X47395237Y-37474807D01*
X46709523Y-37093855D02*
X46252380Y-37093855D01*
X46480952Y-37893855D02*
X46480952Y-37093855D01*
X45566666Y-37893855D02*
X46023809Y-37893855D01*
X45795237Y-37893855D02*
X45795237Y-37093855D01*
X45795237Y-37093855D02*
X45871428Y-37208140D01*
X45871428Y-37208140D02*
X45947618Y-37284331D01*
X45947618Y-37284331D02*
X46023809Y-37322426D01*
D13*
X7261904Y-31155533D02*
X5738095Y-31155533D01*
X6499999Y-31917438D02*
X6499999Y-30393628D01*
D12*
X47128571Y-61474807D02*
X47014285Y-61512902D01*
X47014285Y-61512902D02*
X46976190Y-61550998D01*
X46976190Y-61550998D02*
X46938094Y-61627188D01*
X46938094Y-61627188D02*
X46938094Y-61741474D01*
X46938094Y-61741474D02*
X46976190Y-61817664D01*
X46976190Y-61817664D02*
X47014285Y-61855760D01*
X47014285Y-61855760D02*
X47090475Y-61893855D01*
X47090475Y-61893855D02*
X47395237Y-61893855D01*
X47395237Y-61893855D02*
X47395237Y-61093855D01*
X47395237Y-61093855D02*
X47128571Y-61093855D01*
X47128571Y-61093855D02*
X47052380Y-61131950D01*
X47052380Y-61131950D02*
X47014285Y-61170045D01*
X47014285Y-61170045D02*
X46976190Y-61246236D01*
X46976190Y-61246236D02*
X46976190Y-61322426D01*
X46976190Y-61322426D02*
X47014285Y-61398617D01*
X47014285Y-61398617D02*
X47052380Y-61436712D01*
X47052380Y-61436712D02*
X47128571Y-61474807D01*
X47128571Y-61474807D02*
X47395237Y-61474807D01*
X46709523Y-61093855D02*
X46252380Y-61093855D01*
X46480952Y-61893855D02*
X46480952Y-61093855D01*
X46023809Y-61170045D02*
X45985713Y-61131950D01*
X45985713Y-61131950D02*
X45909523Y-61093855D01*
X45909523Y-61093855D02*
X45719047Y-61093855D01*
X45719047Y-61093855D02*
X45642856Y-61131950D01*
X45642856Y-61131950D02*
X45604761Y-61170045D01*
X45604761Y-61170045D02*
X45566666Y-61246236D01*
X45566666Y-61246236D02*
X45566666Y-61322426D01*
X45566666Y-61322426D02*
X45604761Y-61436712D01*
X45604761Y-61436712D02*
X46061904Y-61893855D01*
X46061904Y-61893855D02*
X45566666Y-61893855D01*
D13*
X7261904Y-55155533D02*
X5738095Y-55155533D01*
X6499999Y-55917438D02*
X6499999Y-54393628D01*
%TO.C,BT1*%
D12*
X7610000Y-15315000D02*
X7610000Y-22490000D01*
X7610000Y-29510000D02*
X7610000Y-36685000D01*
X7610000Y-36685000D02*
X85390000Y-36685000D01*
X85390000Y-15315000D02*
X7610000Y-15315000D01*
X85390000Y-22490000D02*
X85390000Y-15315000D01*
X85390000Y-36685000D02*
X85390000Y-29510000D01*
%TO.C,BT2*%
X7610000Y-39315000D02*
X7610000Y-46490000D01*
X7610000Y-53510000D02*
X7610000Y-60685000D01*
X7610000Y-60685000D02*
X85390000Y-60685000D01*
X85390000Y-39315000D02*
X7610000Y-39315000D01*
X85390000Y-46490000D02*
X85390000Y-39315000D01*
X85390000Y-60685000D02*
X85390000Y-53510000D01*
%TD*%
M02*
