M48
; DRILL file KiCad 10.0.6 date 2026-10-11T01:55:47
; FORMAT={-:-/ absolute / metric / decimal}
; #@! TF.CreationDate,2026-10-11T01:55:47+02:00
; #@! TF.GenerationSoftware,Kicad,Pcbnew,10.0.6
; #@! TF.FileFunction,MixedPlating,1,4
FMAT,2
METRIC
; #@! TA.AperFunction,Plated,PTH,ComponentDrill
T1C0.200
; #@! TA.AperFunction,Plated,PTH,ViaDrill
T2C0.300
; #@! TA.AperFunction,Plated,PTH,ViaDrill
T3C0.350
; #@! TA.AperFunction,Plated,PTH,ComponentDrill
T4C0.600
; #@! TA.AperFunction,Plated,PTH,ComponentDrill
T5C0.950
; #@! TA.AperFunction,Plated,PTH,ComponentDrill
T6C1.000
; #@! TA.AperFunction,Plated,PTH,ComponentDrill
T7C1.800
; #@! TA.AperFunction,Plated,PTH,ComponentDrill
T8C3.200
; #@! TA.AperFunction,NonPlated,NPTH,ComponentDrill
T9C0.650
; #@! TA.AperFunction,NonPlated,NPTH,ComponentDrill
T10C1.600
; #@! TA.AperFunction,NonPlated,NPTH,ComponentDrill
T11C2.390
; #@! TA.AperFunction,NonPlated,NPTH,ComponentDrill
T12C3.450
%
G90
G05
T1
X45.9Y-20.8
X45.9Y-21.9
X45.9Y-23.0
X45.9Y-24.1
X45.9Y-25.2
X47.0Y-20.8
X47.0Y-21.9
X47.0Y-23.0
X47.0Y-24.1
X47.0Y-25.2
X48.1Y-20.8
X48.1Y-21.9
X48.1Y-23.0
X48.1Y-24.1
X48.1Y-25.2
T2
X2.447Y-58.295
X2.594Y-25.817
X2.604Y-27.877
X4.941Y-22.271
X5.4Y-53.718
X8.35Y-9.674
X8.892Y-31.967
X9.377Y-63.547
X10.02Y-54.755
X10.682Y-67.464
X10.694Y-31.645
X10.758Y-7.999
X10.885Y-6.849
X10.947Y-19.457
X11.022Y-24.404
X11.031Y-27.746
X12.077Y-26.277
X13.126Y-75.75
X13.692Y-64.502
X14.722Y-26.756
X14.775Y-53.593
X14.775Y-58.93
X15.001Y-70.271
X15.003Y-66.553
X15.712Y-44.737
X15.878Y-31.788
X16.482Y-8.877
X17.199Y-26.035
X17.789Y-14.75
X17.867Y-13.868
X17.966Y-23.504
X18.313Y-29.563
X18.61Y-51.737
X18.861Y-27.046
X19.342Y-12.496
X19.436Y-11.693
X19.801Y-26.851
X20.114Y-29.7
X20.2Y-28.684
X20.607Y-65.13
X21.0Y-28.66
X21.005Y-20.908
X21.736Y-23.347
X22.008Y-84.854
X22.785Y-25.443
X22.879Y-26.581
X23.306Y-57.897
X23.697Y-40.687
X23.89Y-24.123
X23.975Y-47.031
X25.489Y-46.738
X25.66Y-28.092
X26.704Y-66.0
X26.864Y-18.899
X27.559Y-48.609
X27.718Y-49.757
X30.018Y-58.175
X30.163Y-54.005
X30.418Y-70.738
X30.967Y-67.513
X32.218Y-59.903
X33.215Y-73.8
X33.449Y-67.389
X34.521Y-68.579
X36.076Y-37.068
X37.045Y-72.72
X38.759Y-67.484
X39.399Y-65.471
X41.496Y-61.22
X43.45Y-25.613
X43.768Y-63.845
X47.046Y-40.06
X49.493Y-26.768
X51.107Y-24.3
X55.525Y-55.956
X55.957Y-49.532
X57.175Y-25.69
X57.225Y-43.026
X57.277Y-51.065
X58.208Y-53.2
X58.541Y-53.932
X59.682Y-34.0
X59.739Y-62.558
X60.943Y-66.819
X61.175Y-53.819
X61.828Y-49.259
X61.83Y-47.989
X62.123Y-33.146
X62.225Y-31.644
X62.632Y-53.252
X63.382Y-57.293
X63.678Y-56.252
X63.885Y-33.939
X63.912Y-32.411
X63.945Y-50.558
X64.125Y-49.021
X64.397Y-55.182
X64.712Y-50.573
X65.1Y-35.635
X65.386Y-39.406
X66.322Y-34.0
X66.628Y-57.297
X66.757Y-47.989
X68.295Y-58.72
X68.472Y-57.297
X69.274Y-55.699
X70.552Y-51.063
X70.825Y-57.07
X71.076Y-25.048
X71.081Y-46.0
X71.23Y-42.909
X71.467Y-51.292
X72.539Y-54.036
X72.894Y-22.719
X73.727Y-45.375
X73.802Y-49.09
X73.807Y-44.182
X74.543Y-51.282
X74.715Y-22.156
X74.717Y-52.759
X74.85Y-62.546
X75.126Y-68.228
X75.554Y-66.819
X76.005Y-47.27
X76.086Y-75.435
X76.107Y-50.576
X76.563Y-59.75
X76.575Y-25.687
X77.075Y-53.159
X77.43Y-77.575
X77.962Y-52.71
X78.019Y-38.262
X78.398Y-28.764
X78.527Y-35.627
X78.878Y-48.974
X78.903Y-46.0
X79.193Y-43.46
X80.069Y-53.605
X80.744Y-24.768
X80.873Y-33.072
X80.888Y-34.575
X81.125Y-55.604
X81.925Y-54.048
X81.964Y-49.904
X82.1Y-35.633
X82.715Y-55.61
X83.317Y-34.075
X83.694Y-54.067
X84.67Y-5.039
X85.491Y-39.054
X86.19Y-22.283
X89.028Y-4.704
X89.203Y-11.928
X89.499Y-45.726
X90.142Y-66.819
X91.947Y-55.86
X92.485Y-12.409
X92.982Y-61.996
X93.486Y-42.727
X93.515Y-35.261
X93.541Y-32.185
X94.13Y-9.55
X94.716Y-71.0
X94.884Y-38.291
X97.382Y-67.018
X98.268Y-53.69
X99.382Y-75.293
X99.393Y-69.282
X99.652Y-63.81
X100.617Y-52.041
X101.191Y-78.716
X102.908Y-56.087
X104.581Y-66.48
X108.581Y-75.293
X121.053Y-40.064
X121.063Y-63.097
X124.162Y-51.301
T3
X3.175Y-46.212
X3.573Y-56.042
X6.81Y-29.793
X12.477Y-52.795
X12.933Y-30.25
X16.05Y-21.725
X16.448Y-24.928
X16.538Y-29.355
X18.431Y-32.009
X19.249Y-23.249
X19.519Y-25.359
X20.45Y-25.323
X21.928Y-33.175
X22.98Y-24.233
X24.006Y-22.018
X24.31Y-20.084
X25.725Y-33.215
X27.74Y-63.46
X29.868Y-36.0
X30.905Y-62.961
X31.553Y-64.5
X38.521Y-65.218
X41.121Y-65.275
X42.841Y-4.361
X43.711Y-32.0
X44.137Y-20.324
X48.397Y-10.309
X51.336Y-31.129
X52.625Y-33.774
X64.459Y-23.378
X67.756Y-22.775
X73.692Y-20.215
X79.321Y-23.674
X85.118Y-7.568
X85.182Y-53.757
X94.458Y-66.819
T5
X3.5Y-87.8
X6.0Y-87.8
X8.5Y-87.8
X11.0Y-87.8
X13.5Y-87.8
X16.0Y-87.8
X18.5Y-87.8
X21.0Y-87.8
X23.5Y-87.8
X26.0Y-87.8
X33.0Y-87.8
X35.5Y-87.8
X38.0Y-87.8
X40.5Y-87.8
X43.0Y-87.8
X51.0Y-87.8
X53.5Y-87.8
X56.0Y-87.8
X57.5Y-3.0
X60.0Y-3.0
X62.5Y-3.0
X65.0Y-3.0
X65.6Y-87.8
X68.1Y-87.8
X70.6Y-87.8
X71.0Y-3.0
X73.5Y-3.0
X76.0Y-3.0
X78.5Y-3.0
X80.2Y-87.8
X82.7Y-87.8
X85.2Y-87.8
X93.0Y-87.8
X95.5Y-87.8
X98.0Y-87.8
X100.5Y-87.8
X103.0Y-87.8
X111.0Y-87.8
X113.5Y-87.8
X116.0Y-87.8
X118.5Y-87.8
T6
X49.0Y-74.0
X49.0Y-76.5
X49.0Y-79.0
X50.5Y-66.5
X53.04Y-66.5
X55.58Y-66.5
X63.85Y-74.0
X63.85Y-76.5
X63.85Y-79.0
X65.1Y-66.5
X67.64Y-66.5
X70.18Y-66.5
X78.7Y-74.0
X78.7Y-76.5
X78.7Y-79.0
X79.7Y-66.5
X82.24Y-66.5
X84.78Y-66.5
X102.0Y-9.0
X102.0Y-11.54
X102.0Y-14.08
X102.0Y-16.62
X102.0Y-19.16
X102.0Y-21.7
X102.0Y-24.24
X102.0Y-26.78
X102.0Y-29.32
X102.0Y-31.86
X102.0Y-34.4
X102.0Y-36.94
X102.0Y-39.48
X102.0Y-42.02
X102.0Y-44.56
X104.54Y-9.0
X104.54Y-11.54
X104.54Y-14.08
X104.54Y-16.62
X104.54Y-19.16
X104.54Y-21.7
X104.54Y-24.24
X104.54Y-26.78
X104.54Y-29.32
X104.54Y-31.86
X104.54Y-34.4
X104.54Y-36.94
X104.54Y-39.48
X104.54Y-42.02
X104.54Y-44.56
X104.54Y-47.1
X104.54Y-49.64
X104.54Y-52.18
X104.54Y-54.72
X104.54Y-57.26
X122.32Y-9.0
X122.32Y-11.54
X122.32Y-14.08
X122.32Y-16.62
X122.32Y-19.16
X122.32Y-21.7
X122.32Y-24.24
X122.32Y-26.78
X122.32Y-29.32
X122.32Y-31.86
X122.32Y-34.4
X122.32Y-36.94
X122.32Y-39.48
X122.32Y-42.02
X122.32Y-44.56
X122.32Y-47.1
X122.32Y-49.64
X122.32Y-52.18
X122.32Y-54.72
X122.32Y-57.26
X124.86Y-9.0
X124.86Y-11.54
X124.86Y-14.08
X124.86Y-16.62
X124.86Y-19.16
X124.86Y-21.7
X124.86Y-24.24
X124.86Y-26.78
X124.86Y-29.32
X124.86Y-31.86
X124.86Y-34.4
X124.86Y-36.94
X124.86Y-39.48
X124.86Y-42.02
X124.86Y-44.56
X127.4Y-9.0
X127.4Y-11.54
X127.4Y-14.08
X127.4Y-16.62
X127.4Y-19.16
X127.4Y-21.7
X127.4Y-24.24
X127.4Y-26.78
X127.4Y-29.32
X127.4Y-31.86
X127.4Y-34.4
X127.4Y-36.94
X127.4Y-39.48
X127.4Y-42.02
X127.4Y-44.56
X129.94Y-9.0
X129.94Y-11.54
X129.94Y-14.08
X129.94Y-16.62
X129.94Y-19.16
X129.94Y-21.7
X129.94Y-24.24
X129.94Y-26.78
X129.94Y-29.32
X129.94Y-31.86
X129.94Y-34.4
X129.94Y-36.94
X129.94Y-39.48
X129.94Y-42.02
X129.94Y-44.56
T8
X4.0Y-66.5
X14.2Y-4.0
X131.0Y-4.0
X131.0Y-88.0
T9
X8.1Y-5.11
X8.1Y-10.89
T10
X28.0Y-3.5
T11
X10.37Y-34.0
X10.37Y-58.0
T12
X18.88Y-18.0
X18.88Y-42.0
X74.12Y-34.0
X74.12Y-58.0
T4
X4.75Y-3.68G85X4.15Y-3.68
G05
X4.75Y-12.32G85X4.15Y-12.32
G05
X9.18Y-3.68G85X8.08Y-3.68
G05
X9.18Y-12.32G85X8.08Y-12.32
G05
T6
X23.5Y-6.25G85X23.5Y-4.75
G05
X28.65Y-6.5G85X27.35Y-6.5
G05
X29.0Y-12.5G85X27.0Y-12.5
G05
X32.5Y-6.25G85X32.5Y-4.75
G05
T7
X55.85Y-72.1G85X56.15Y-72.1
G05
X55.85Y-80.9G85X56.15Y-80.9
G05
X70.7Y-72.1G85X71.0Y-72.1
G05
X70.7Y-80.9G85X71.0Y-80.9
G05
X85.55Y-72.1G85X85.85Y-72.1
G05
X85.55Y-80.9G85X85.85Y-80.9
G05
M30
