%TF.GenerationSoftware,KiCad,Pcbnew,10.0.6*%
%TF.CreationDate,2026-10-11T00:39:03+02:00*%
%TF.ProjectId,b4-carrier,62342d63-6172-4726-9965-722e6b696361,rev?*%
%TF.SameCoordinates,Original*%
%TF.FileFunction,Other,User*%
%FSLAX46Y46*%
G04 Gerber Fmt 4.6, Leading zero omitted, Abs format (unit mm)*
G04 Created by KiCad (PCBNEW 10.0.6) date 2026-10-11 00:39:03*
%MOMM*%
%LPD*%
G01*
G04 APERTURE LIST*
%ADD10C,0.050000*%
G04 APERTURE END LIST*
%TO.C,U9*%
D10*
X98230000Y-830000D02*
X109390000Y-830000D01*
X98230000Y-4370000D02*
X98230000Y-830000D01*
X109390000Y-830000D02*
X109390000Y-4370000D01*
X109390000Y-4370000D02*
X98230000Y-4370000D01*
%TO.C,R50*%
X106950000Y-60500000D02*
X116670000Y-60500000D01*
X116670000Y-63500000D01*
X106950000Y-63500000D01*
X106950000Y-60500000D01*
%TO.C,TP8*%
X48750000Y-80750000D02*
X48750000Y-83250000D01*
X48750000Y-80750000D02*
X51250000Y-80750000D01*
X51250000Y-83250000D02*
X48750000Y-83250000D01*
X51250000Y-83250000D02*
X51250000Y-80750000D01*
%TO.C,J3*%
X1650000Y-50550000D02*
X8400000Y-50550000D01*
X8400000Y-73950000D01*
X1650000Y-73950000D01*
X1650000Y-50550000D01*
%TO.C,C16*%
X75950000Y-87500000D02*
X83050000Y-87500000D01*
X83050000Y-90500000D01*
X75950000Y-90500000D01*
X75950000Y-87500000D01*
%TO.C,R15*%
X75950000Y-71500000D02*
X85670000Y-71500000D01*
X85670000Y-74500000D01*
X75950000Y-74500000D01*
X75950000Y-71500000D01*
%TO.C,H3*%
X7050000Y-96000000D02*
G75*
G02*
X950000Y-96000000I-3050000J0D01*
G01*
X950000Y-96000000D02*
G75*
G02*
X7050000Y-96000000I3050000J0D01*
G01*
%TO.C,R10*%
X75950000Y-51500000D02*
X85670000Y-51500000D01*
X85670000Y-54500000D01*
X75950000Y-54500000D01*
X75950000Y-51500000D01*
%TO.C,R42*%
X91950000Y-55500000D02*
X101670000Y-55500000D01*
X101670000Y-58500000D01*
X91950000Y-58500000D01*
X91950000Y-55500000D01*
%TO.C,R44*%
X91950000Y-63500000D02*
X101670000Y-63500000D01*
X101670000Y-66500000D01*
X91950000Y-66500000D01*
X91950000Y-63500000D01*
%TO.C,JP3*%
X118230000Y-73230000D02*
X126850000Y-73230000D01*
X126850000Y-76770000D01*
X118230000Y-76770000D01*
X118230000Y-73230000D01*
%TO.C,R11*%
X75950000Y-55500000D02*
X85670000Y-55500000D01*
X85670000Y-58500000D01*
X75950000Y-58500000D01*
X75950000Y-55500000D01*
%TO.C,C15*%
X75950000Y-83500000D02*
X83050000Y-83500000D01*
X83050000Y-86500000D01*
X75950000Y-86500000D01*
X75950000Y-83500000D01*
%TO.C,C10*%
X45950000Y-48500000D02*
X53050000Y-48500000D01*
X53050000Y-51500000D01*
X45950000Y-51500000D01*
X45950000Y-48500000D01*
%TO.C,J14*%
X159230000Y-26230000D02*
X162770000Y-26230000D01*
X159230000Y-78030000D02*
X159230000Y-26230000D01*
X162770000Y-26230000D02*
X162770000Y-78030000D01*
X162770000Y-78030000D02*
X159230000Y-78030000D01*
%TO.C,R23*%
X58950000Y-63500000D02*
X68670000Y-63500000D01*
X68670000Y-66500000D01*
X58950000Y-66500000D01*
X58950000Y-63500000D01*
%TO.C,R47*%
X91950000Y-75500000D02*
X101670000Y-75500000D01*
X101670000Y-78500000D01*
X91950000Y-78500000D01*
X91950000Y-75500000D01*
%TO.C,R32*%
X58950000Y-79500000D02*
X68670000Y-79500000D01*
X68670000Y-82500000D01*
X58950000Y-82500000D01*
X58950000Y-79500000D01*
%TO.C,U6*%
X94230000Y-22230000D02*
X97770000Y-22230000D01*
X94230000Y-48630000D02*
X94230000Y-22230000D01*
X97770000Y-22230000D02*
X97770000Y-48630000D01*
X97770000Y-48630000D02*
X94230000Y-48630000D01*
%TO.C,R22*%
X58950000Y-59500000D02*
X68670000Y-59500000D01*
X68670000Y-62500000D01*
X58950000Y-62500000D01*
X58950000Y-59500000D01*
%TO.C,J8*%
X60050000Y-92150000D02*
X73450000Y-92150000D01*
X73450000Y-98900000D01*
X60050000Y-98900000D01*
X60050000Y-92150000D01*
%TO.C,D5*%
X18550000Y-38950000D02*
X31610000Y-38950000D01*
X31610000Y-43050000D01*
X18550000Y-43050000D01*
X18550000Y-38950000D01*
%TO.C,H2*%
X183050000Y-4000000D02*
G75*
G02*
X176950000Y-4000000I-3050000J0D01*
G01*
X176950000Y-4000000D02*
G75*
G02*
X183050000Y-4000000I3050000J0D01*
G01*
%TO.C,RV1*%
X102050000Y-80850000D02*
X102050000Y-94150000D01*
X102050000Y-94150000D02*
X116450000Y-94150000D01*
X116450000Y-80850000D02*
X102050000Y-80850000D01*
X116450000Y-94150000D02*
X116450000Y-80850000D01*
%TO.C,TP4*%
X36750000Y-80750000D02*
X36750000Y-83250000D01*
X36750000Y-80750000D02*
X39250000Y-80750000D01*
X39250000Y-83250000D02*
X36750000Y-83250000D01*
X39250000Y-83250000D02*
X39250000Y-80750000D01*
%TO.C,TP5*%
X39750000Y-80750000D02*
X39750000Y-83250000D01*
X39750000Y-80750000D02*
X42250000Y-80750000D01*
X42250000Y-83250000D02*
X39750000Y-83250000D01*
X42250000Y-83250000D02*
X42250000Y-80750000D01*
%TO.C,C11*%
X62950000Y-26000000D02*
X70050000Y-26000000D01*
X70050000Y-29000000D01*
X62950000Y-29000000D01*
X62950000Y-26000000D01*
%TO.C,R46*%
X91950000Y-71500000D02*
X101670000Y-71500000D01*
X101670000Y-74500000D01*
X91950000Y-74500000D01*
X91950000Y-71500000D01*
%TO.C,R53*%
X106950000Y-56500000D02*
X116670000Y-56500000D01*
X116670000Y-59500000D01*
X106950000Y-59500000D01*
X106950000Y-56500000D01*
%TO.C,C8*%
X37950000Y-48500000D02*
X45050000Y-48500000D01*
X45050000Y-51500000D01*
X37950000Y-51500000D01*
X37950000Y-48500000D01*
%TO.C,JP2*%
X103230000Y-73230000D02*
X111850000Y-73230000D01*
X111850000Y-76770000D01*
X103230000Y-76770000D01*
X103230000Y-73230000D01*
%TO.C,R51*%
X106950000Y-64500000D02*
X116670000Y-64500000D01*
X116670000Y-67500000D01*
X106950000Y-67500000D01*
X106950000Y-64500000D01*
%TO.C,R33*%
X58950000Y-83500000D02*
X68670000Y-83500000D01*
X68670000Y-86500000D01*
X58950000Y-86500000D01*
X58950000Y-83500000D01*
%TO.C,U3*%
X41430000Y-20250000D02*
X53540000Y-20250000D01*
X53540000Y-29250000D01*
X41430000Y-29250000D01*
X41430000Y-20250000D01*
%TO.C,U8*%
X68230000Y-5230000D02*
X84470000Y-5230000D01*
X68230000Y-8770000D02*
X68230000Y-5230000D01*
X84470000Y-5230000D02*
X84470000Y-8770000D01*
X84470000Y-8770000D02*
X68230000Y-8770000D01*
%TO.C,R52*%
X106950000Y-68500000D02*
X116670000Y-68500000D01*
X116670000Y-71500000D01*
X106950000Y-71500000D01*
X106950000Y-68500000D01*
%TO.C,F1*%
X37350000Y-17500000D02*
X40850000Y-17500000D01*
X40850000Y-27400000D01*
X37350000Y-27400000D01*
X37350000Y-17500000D01*
%TO.C,D3*%
X20150000Y-27150000D02*
X36550000Y-27150000D01*
X36550000Y-32850000D01*
X20150000Y-32850000D01*
X20150000Y-27150000D01*
%TO.C,JP4*%
X133230000Y-73230000D02*
X141850000Y-73230000D01*
X141850000Y-76770000D01*
X133230000Y-76770000D01*
X133230000Y-73230000D01*
%TO.C,TP9*%
X51750000Y-80750000D02*
X51750000Y-83250000D01*
X51750000Y-80750000D02*
X54250000Y-80750000D01*
X54250000Y-83250000D02*
X51750000Y-83250000D01*
X54250000Y-83250000D02*
X54250000Y-80750000D01*
%TO.C,TP7*%
X45750000Y-80750000D02*
X45750000Y-83250000D01*
X45750000Y-80750000D02*
X48250000Y-80750000D01*
X48250000Y-83250000D02*
X45750000Y-83250000D01*
X48250000Y-83250000D02*
X48250000Y-80750000D01*
%TO.C,J4*%
X23050000Y-92150000D02*
X33950000Y-92150000D01*
X33950000Y-98900000D01*
X23050000Y-98900000D01*
X23050000Y-92150000D01*
%TO.C,J5*%
X35050000Y-92150000D02*
X45950000Y-92150000D01*
X45950000Y-98900000D01*
X35050000Y-98900000D01*
X35050000Y-92150000D01*
%TO.C,J1*%
X1350000Y-8680000D02*
X1350000Y-19320000D01*
X10770000Y-8680000D02*
X1350000Y-8680000D01*
X10770000Y-8680000D02*
X10770000Y-19320000D01*
X10770000Y-19320000D02*
X1350000Y-19320000D01*
%TO.C,TP3*%
X33750000Y-80750000D02*
X33750000Y-83250000D01*
X33750000Y-80750000D02*
X36250000Y-80750000D01*
X36250000Y-83250000D02*
X33750000Y-83250000D01*
X36250000Y-83250000D02*
X36250000Y-80750000D01*
%TO.C,RV3*%
X131650000Y-80850000D02*
X131650000Y-94150000D01*
X131650000Y-94150000D02*
X146050000Y-94150000D01*
X146050000Y-80850000D02*
X131650000Y-80850000D01*
X146050000Y-94150000D02*
X146050000Y-80850000D01*
%TO.C,C14*%
X91950000Y-87500000D02*
X99050000Y-87500000D01*
X99050000Y-90500000D01*
X91950000Y-90500000D01*
X91950000Y-87500000D01*
%TO.C,C1*%
X13300000Y-18020000D02*
X16700000Y-18020000D01*
X16700000Y-19980000D01*
X13300000Y-19980000D01*
X13300000Y-18020000D01*
%TO.C,JP1*%
X20230000Y-70230000D02*
X26320000Y-70230000D01*
X26320000Y-73770000D01*
X20230000Y-73770000D01*
X20230000Y-70230000D01*
%TO.C,R48*%
X91950000Y-79500000D02*
X101670000Y-79500000D01*
X101670000Y-82500000D01*
X91950000Y-82500000D01*
X91950000Y-79500000D01*
%TO.C,C2*%
X20750000Y-53000000D02*
G75*
G02*
X10250000Y-53000000I-5250000J0D01*
G01*
X10250000Y-53000000D02*
G75*
G02*
X20750000Y-53000000I5250000J0D01*
G01*
%TO.C,R21*%
X58950000Y-55500000D02*
X68670000Y-55500000D01*
X68670000Y-58500000D01*
X58950000Y-58500000D01*
X58950000Y-55500000D01*
%TO.C,TP10*%
X54750000Y-80750000D02*
X54750000Y-83250000D01*
X54750000Y-80750000D02*
X57250000Y-80750000D01*
X57250000Y-83250000D02*
X54750000Y-83250000D01*
X57250000Y-83250000D02*
X57250000Y-80750000D01*
%TO.C,C4*%
X50950000Y-14500000D02*
X58050000Y-14500000D01*
X58050000Y-17500000D01*
X50950000Y-17500000D01*
X50950000Y-14500000D01*
%TO.C,LED2*%
X35850000Y-61790000D02*
X40690000Y-61790000D01*
X40690000Y-66210000D01*
X35850000Y-66210000D01*
X35850000Y-61790000D01*
%TO.C,U1*%
X16270000Y-10450000D02*
X17800000Y-10450000D01*
X16270000Y-15550000D02*
X16270000Y-10450000D01*
X17800000Y-10300000D02*
X22200000Y-10300000D01*
X17800000Y-10450000D02*
X17800000Y-10300000D01*
X17800000Y-15550000D02*
X16270000Y-15550000D01*
X17800000Y-15700000D02*
X17800000Y-15550000D01*
X22200000Y-10300000D02*
X22200000Y-10450000D01*
X22200000Y-10450000D02*
X23730000Y-10450000D01*
X22200000Y-15550000D02*
X22200000Y-15700000D01*
X22200000Y-15700000D02*
X17800000Y-15700000D01*
X23730000Y-10450000D02*
X23730000Y-15550000D01*
X23730000Y-15550000D02*
X22200000Y-15550000D01*
%TO.C,D4*%
X39650000Y-55400000D02*
X52510000Y-55400000D01*
X52510000Y-58600000D01*
X39650000Y-58600000D01*
X39650000Y-55400000D01*
%TO.C,C3*%
X42950000Y-14500000D02*
X50050000Y-14500000D01*
X50050000Y-17500000D01*
X42950000Y-17500000D01*
X42950000Y-14500000D01*
%TO.C,R45*%
X91950000Y-67500000D02*
X101670000Y-67500000D01*
X101670000Y-70500000D01*
X91950000Y-70500000D01*
X91950000Y-67500000D01*
%TO.C,C21*%
X118950000Y-64500000D02*
X126050000Y-64500000D01*
X126050000Y-67500000D01*
X118950000Y-67500000D01*
X118950000Y-64500000D01*
%TO.C,R1*%
X18320000Y-18050000D02*
X21680000Y-18050000D01*
X21680000Y-19950000D01*
X18320000Y-19950000D01*
X18320000Y-18050000D01*
%TO.C,R16*%
X75950000Y-75500000D02*
X85670000Y-75500000D01*
X85670000Y-78500000D01*
X75950000Y-78500000D01*
X75950000Y-75500000D01*
%TO.C,U2*%
X43290000Y-5600000D02*
X53790000Y-5600000D01*
X53790000Y-10500000D01*
X43290000Y-10500000D01*
X43290000Y-5600000D01*
%TO.C,J10*%
X123230000Y-14230000D02*
X126770000Y-14230000D01*
X123230000Y-53330000D02*
X123230000Y-14230000D01*
X126770000Y-14230000D02*
X126770000Y-53330000D01*
X126770000Y-53330000D02*
X123230000Y-53330000D01*
%TO.C,R20*%
X58950000Y-51500000D02*
X68670000Y-51500000D01*
X68670000Y-54500000D01*
X58950000Y-54500000D01*
X58950000Y-51500000D01*
%TO.C,TP1*%
X27750000Y-80750000D02*
X27750000Y-83250000D01*
X27750000Y-80750000D02*
X30250000Y-80750000D01*
X30250000Y-83250000D02*
X27750000Y-83250000D01*
X30250000Y-83250000D02*
X30250000Y-80750000D01*
%TO.C,LED3*%
X101850000Y-55790000D02*
X106690000Y-55790000D01*
X106690000Y-60210000D01*
X101850000Y-60210000D01*
X101850000Y-55790000D01*
%TO.C,R3*%
X42950000Y-62500000D02*
X52670000Y-62500000D01*
X52670000Y-65500000D01*
X42950000Y-65500000D01*
X42950000Y-62500000D01*
%TO.C,R2*%
X27950000Y-4000000D02*
X37670000Y-4000000D01*
X37670000Y-7000000D01*
X27950000Y-7000000D01*
X27950000Y-4000000D01*
%TO.C,R31*%
X58950000Y-75500000D02*
X68670000Y-75500000D01*
X68670000Y-78500000D01*
X58950000Y-78500000D01*
X58950000Y-75500000D01*
%TO.C,C22*%
X118950000Y-68500000D02*
X126050000Y-68500000D01*
X126050000Y-71500000D01*
X118950000Y-71500000D01*
X118950000Y-68500000D01*
%TO.C,C12*%
X75950000Y-79500000D02*
X83050000Y-79500000D01*
X83050000Y-82500000D01*
X75950000Y-82500000D01*
X75950000Y-79500000D01*
%TO.C,H4*%
X183050000Y-96000000D02*
G75*
G02*
X176950000Y-96000000I-3050000J0D01*
G01*
X176950000Y-96000000D02*
G75*
G02*
X183050000Y-96000000I3050000J0D01*
G01*
%TO.C,TP6*%
X42750000Y-80750000D02*
X42750000Y-83250000D01*
X42750000Y-80750000D02*
X45250000Y-80750000D01*
X45250000Y-83250000D02*
X42750000Y-83250000D01*
X45250000Y-83250000D02*
X45250000Y-80750000D01*
%TO.C,J9*%
X109550000Y-150000D02*
X122950000Y-150000D01*
X122950000Y-6900000D01*
X109550000Y-6900000D01*
X109550000Y-150000D01*
%TO.C,C7*%
X57750000Y-33000000D02*
G75*
G02*
X52250000Y-33000000I-2750000J0D01*
G01*
X52250000Y-33000000D02*
G75*
G02*
X57750000Y-33000000I2750000J0D01*
G01*
%TO.C,D2*%
X20150000Y-20150000D02*
X36550000Y-20150000D01*
X36550000Y-25850000D01*
X20150000Y-25850000D01*
X20150000Y-20150000D01*
%TO.C,J2*%
X0Y-28000000D02*
X0Y-40000000D01*
X0Y-40000000D02*
X14000000Y-40000000D01*
X14000000Y-28000000D02*
X0Y-28000000D01*
X14000000Y-40000000D02*
X14000000Y-28000000D01*
%TO.C,C6*%
X43250000Y-36000000D02*
G75*
G02*
X37750000Y-36000000I-2750000J0D01*
G01*
X37750000Y-36000000D02*
G75*
G02*
X43250000Y-36000000I2750000J0D01*
G01*
%TO.C,R41*%
X91950000Y-51500000D02*
X101670000Y-51500000D01*
X101670000Y-54500000D01*
X91950000Y-54500000D01*
X91950000Y-51500000D01*
%TO.C,R30*%
X58950000Y-71500000D02*
X68670000Y-71500000D01*
X68670000Y-74500000D01*
X58950000Y-74500000D01*
X58950000Y-71500000D01*
%TO.C,J7*%
X2150000Y-74550000D02*
X8900000Y-74550000D01*
X8900000Y-87950000D01*
X2150000Y-87950000D01*
X2150000Y-74550000D01*
%TO.C,C13*%
X91950000Y-83500000D02*
X99050000Y-83500000D01*
X99050000Y-86500000D01*
X91950000Y-86500000D01*
X91950000Y-83500000D01*
%TO.C,LED1*%
X22850000Y-3290000D02*
X27690000Y-3290000D01*
X27690000Y-7710000D01*
X22850000Y-7710000D01*
X22850000Y-3290000D01*
%TO.C,H1*%
X7050000Y-4000000D02*
G75*
G02*
X950000Y-4000000I-3050000J0D01*
G01*
X950000Y-4000000D02*
G75*
G02*
X7050000Y-4000000I3050000J0D01*
G01*
%TO.C,J15*%
X177010000Y-26230000D02*
X180550000Y-26230000D01*
X177010000Y-78030000D02*
X177010000Y-26230000D01*
X180550000Y-26230000D02*
X180550000Y-78030000D01*
X180550000Y-78030000D02*
X177010000Y-78030000D01*
%TO.C,J12*%
X148630000Y-14230000D02*
X152170000Y-14230000D01*
X148630000Y-53330000D02*
X148630000Y-14230000D01*
X152170000Y-14230000D02*
X152170000Y-53330000D01*
X152170000Y-53330000D02*
X148630000Y-53330000D01*
%TO.C,C20*%
X118950000Y-60500000D02*
X126050000Y-60500000D01*
X126050000Y-63500000D01*
X118950000Y-63500000D01*
X118950000Y-60500000D01*
%TO.C,R34*%
X58950000Y-87500000D02*
X68670000Y-87500000D01*
X68670000Y-90500000D01*
X58950000Y-90500000D01*
X58950000Y-87500000D01*
%TO.C,R12*%
X75950000Y-59500000D02*
X85670000Y-59500000D01*
X85670000Y-62500000D01*
X75950000Y-62500000D01*
X75950000Y-59500000D01*
%TO.C,C9*%
X55750000Y-44000000D02*
G75*
G02*
X50250000Y-44000000I-2750000J0D01*
G01*
X50250000Y-44000000D02*
G75*
G02*
X55750000Y-44000000I2750000J0D01*
G01*
%TO.C,J13*%
X151170000Y-14230000D02*
X154710000Y-14230000D01*
X151170000Y-53330000D02*
X151170000Y-14230000D01*
X154710000Y-14230000D02*
X154710000Y-53330000D01*
X154710000Y-53330000D02*
X151170000Y-53330000D01*
%TO.C,R24*%
X58950000Y-67500000D02*
X68670000Y-67500000D01*
X68670000Y-70500000D01*
X58950000Y-70500000D01*
X58950000Y-67500000D01*
%TO.C,C5*%
X60750000Y-9000000D02*
G75*
G02*
X55250000Y-9000000I-2750000J0D01*
G01*
X55250000Y-9000000D02*
G75*
G02*
X60750000Y-9000000I2750000J0D01*
G01*
%TO.C,R13*%
X75950000Y-63500000D02*
X85670000Y-63500000D01*
X85670000Y-66500000D01*
X75950000Y-66500000D01*
X75950000Y-63500000D01*
%TO.C,R14*%
X75950000Y-67500000D02*
X85670000Y-67500000D01*
X85670000Y-70500000D01*
X75950000Y-70500000D01*
X75950000Y-67500000D01*
%TO.C,U5*%
X62480000Y-32410000D02*
X73140000Y-32410000D01*
X73140000Y-50820000D01*
X62480000Y-50820000D01*
X62480000Y-32410000D01*
%TO.C,TP2*%
X30750000Y-80750000D02*
X30750000Y-83250000D01*
X30750000Y-80750000D02*
X33250000Y-80750000D01*
X33250000Y-83250000D02*
X30750000Y-83250000D01*
X33250000Y-83250000D02*
X33250000Y-80750000D01*
%TO.C,R43*%
X91950000Y-59500000D02*
X101670000Y-59500000D01*
X101670000Y-62500000D01*
X91950000Y-62500000D01*
X91950000Y-59500000D01*
%TO.C,R40*%
X20950000Y-64500000D02*
X30670000Y-64500000D01*
X30670000Y-67500000D01*
X20950000Y-67500000D01*
X20950000Y-64500000D01*
%TO.C,U7*%
X68230000Y-17930000D02*
X84470000Y-17930000D01*
X68230000Y-21470000D02*
X68230000Y-17930000D01*
X84470000Y-17930000D02*
X84470000Y-21470000D01*
X84470000Y-21470000D02*
X68230000Y-21470000D01*
%TO.C,U4*%
X43540000Y-41270000D02*
X43540000Y-46010000D01*
X43540000Y-41270000D02*
X49000000Y-41270000D01*
X49000000Y-46010000D02*
X43540000Y-46010000D01*
X49000000Y-46010000D02*
X49000000Y-41270000D01*
%TO.C,J6*%
X47050000Y-92150000D02*
X57950000Y-92150000D01*
X57950000Y-98900000D01*
X47050000Y-98900000D01*
X47050000Y-92150000D01*
%TO.C,J11*%
X146090000Y-14230000D02*
X149630000Y-14230000D01*
X146090000Y-53330000D02*
X146090000Y-14230000D01*
X149630000Y-14230000D02*
X149630000Y-53330000D01*
X149630000Y-53330000D02*
X146090000Y-53330000D01*
%TO.C,RV2*%
X116850000Y-80850000D02*
X116850000Y-94150000D01*
X116850000Y-94150000D02*
X131250000Y-94150000D01*
X131250000Y-80850000D02*
X116850000Y-80850000D01*
X131250000Y-94150000D02*
X131250000Y-80850000D01*
%TD*%
M02*
