M48
; DRILL file KiCad 10.0.6 date 2026-10-11T00:30:12
; FORMAT={-:-/ absolute / metric / decimal}
; #@! TF.CreationDate,2026-10-11T00:30:12+02:00
; #@! TF.GenerationSoftware,Kicad,Pcbnew,10.0.6
; #@! TF.FileFunction,MixedPlating,1,2
FMAT,2
METRIC
; #@! TA.AperFunction,Plated,PTH,ViaDrill
T1C0.400
; #@! TA.AperFunction,Plated,PTH,ViaDrill
T2C0.500
; #@! TA.AperFunction,Plated,PTH,ComponentDrill
T3C0.600
; #@! TA.AperFunction,Plated,PTH,ComponentDrill
T4C0.700
; #@! TA.AperFunction,Plated,PTH,ComponentDrill
T5C0.710
; #@! TA.AperFunction,Plated,PTH,ComponentDrill
T6C0.750
; #@! TA.AperFunction,Plated,PTH,ComponentDrill
T7C0.800
; #@! TA.AperFunction,Plated,PTH,ComponentDrill
T8C0.900
; #@! TA.AperFunction,Plated,PTH,ComponentDrill
T9C0.950
; #@! TA.AperFunction,Plated,PTH,ComponentDrill
T10C1.000
; #@! TA.AperFunction,Plated,PTH,ComponentDrill
T11C1.100
; #@! TA.AperFunction,Plated,PTH,ComponentDrill
T12C1.200
; #@! TA.AperFunction,Plated,PTH,ComponentDrill
T13C1.600
; #@! TA.AperFunction,Plated,PTH,ComponentDrill
T14C1.800
; #@! TA.AperFunction,Plated,PTH,ComponentDrill
T15C3.200
; #@! TA.AperFunction,NonPlated,NPTH,ComponentDrill
T16C0.650
; #@! TA.AperFunction,NonPlated,NPTH,ComponentDrill
T17C1.600
%
G90
G05
T1
X8.238Y-12.8
X8.238Y-15.7
X10.86Y-13.25
X14.593Y-15.507
X15.965Y-14.77
X16.492Y-10.129
X21.195Y-15.353
X24.071Y-14.0
X24.652Y-13.218
X41.466Y-78.827
X42.192Y-97.191
X53.036Y-57.103
X58.577Y-43.173
X60.873Y-58.99
X68.556Y-62.126
X69.27Y-68.705
X95.73Y-67.342
T2
X57.434Y-42.757
X65.527Y-22.223
T4
X29.0Y-82.0
X32.0Y-82.0
X35.0Y-82.0
X38.0Y-82.0
X41.0Y-82.0
X44.0Y-82.0
X47.0Y-82.0
X50.0Y-82.0
X53.0Y-82.0
X56.0Y-82.0
T5
X38.5Y-25.0
X39.7Y-19.9
T6
X45.0Y-44.0
X46.27Y-44.0
X47.54Y-44.0
T7
X22.0Y-66.0
X29.0Y-5.5
X29.62Y-66.0
X36.62Y-5.5
X39.0Y-50.0
X39.5Y-36.0
X41.5Y-36.0
X44.0Y-16.0
X44.0Y-50.0
X44.0Y-64.0
X47.0Y-50.0
X49.0Y-16.0
X51.62Y-64.0
X52.0Y-16.0
X52.0Y-44.0
X52.0Y-50.0
X54.0Y-33.0
X54.0Y-44.0
X56.0Y-33.0
X57.0Y-9.0
X57.0Y-16.0
X59.0Y-9.0
X60.0Y-53.0
X60.0Y-57.0
X60.0Y-61.0
X60.0Y-65.0
X60.0Y-69.0
X60.0Y-73.0
X60.0Y-77.0
X60.0Y-81.0
X60.0Y-85.0
X60.0Y-89.0
X64.0Y-27.5
X64.0Y-34.0
X64.0Y-36.54
X64.0Y-39.08
X64.0Y-41.62
X64.0Y-44.16
X64.0Y-46.7
X64.0Y-49.24
X67.62Y-53.0
X67.62Y-57.0
X67.62Y-61.0
X67.62Y-65.0
X67.62Y-69.0
X67.62Y-73.0
X67.62Y-77.0
X67.62Y-81.0
X67.62Y-85.0
X67.62Y-89.0
X69.0Y-27.5
X71.62Y-34.0
X71.62Y-36.54
X71.62Y-39.08
X71.62Y-41.62
X71.62Y-44.16
X71.62Y-46.7
X71.62Y-49.24
X77.0Y-53.0
X77.0Y-57.0
X77.0Y-61.0
X77.0Y-65.0
X77.0Y-69.0
X77.0Y-73.0
X77.0Y-77.0
X77.0Y-81.0
X77.0Y-85.0
X77.0Y-89.0
X82.0Y-81.0
X82.0Y-85.0
X82.0Y-89.0
X84.62Y-53.0
X84.62Y-57.0
X84.62Y-61.0
X84.62Y-65.0
X84.62Y-69.0
X84.62Y-73.0
X84.62Y-77.0
X93.0Y-53.0
X93.0Y-57.0
X93.0Y-61.0
X93.0Y-65.0
X93.0Y-69.0
X93.0Y-73.0
X93.0Y-77.0
X93.0Y-81.0
X93.0Y-85.0
X93.0Y-89.0
X98.0Y-85.0
X98.0Y-89.0
X100.62Y-53.0
X100.62Y-57.0
X100.62Y-61.0
X100.62Y-65.0
X100.62Y-69.0
X100.62Y-73.0
X100.62Y-77.0
X100.62Y-81.0
X108.0Y-58.0
X108.0Y-62.0
X108.0Y-66.0
X108.0Y-70.0
X115.62Y-58.0
X115.62Y-62.0
X115.62Y-66.0
X115.62Y-70.0
X120.0Y-62.0
X120.0Y-66.0
X120.0Y-70.0
X125.0Y-62.0
X125.0Y-66.0
X125.0Y-70.0
T8
X24.0Y-5.5
X26.54Y-5.5
X37.0Y-64.0
X39.54Y-64.0
X103.0Y-58.0
X105.54Y-58.0
T9
X4.5Y-53.5
X4.5Y-56.0
X4.5Y-58.5
X4.5Y-61.0
X4.5Y-63.5
X4.5Y-66.0
X4.5Y-68.5
X4.5Y-71.0
X5.0Y-77.5
X5.0Y-80.0
X5.0Y-82.5
X5.0Y-85.0
X26.0Y-95.0
X28.5Y-95.0
X31.0Y-95.0
X38.0Y-95.0
X40.5Y-95.0
X43.0Y-95.0
X50.0Y-95.0
X52.5Y-95.0
X55.0Y-95.0
X63.0Y-95.0
X65.5Y-95.0
X68.0Y-95.0
X70.5Y-95.0
X112.5Y-3.0
X115.0Y-3.0
X117.5Y-3.0
X120.0Y-3.0
T10
X13.0Y-53.0
X18.0Y-53.0
X22.0Y-72.0
X24.54Y-72.0
X45.0Y-27.0
X47.54Y-27.0
X50.08Y-27.0
X70.0Y-7.0
X70.0Y-19.7
X72.54Y-7.0
X72.54Y-19.7
X75.08Y-7.0
X75.08Y-19.7
X77.62Y-7.0
X77.62Y-19.7
X80.16Y-7.0
X80.16Y-19.7
X82.7Y-7.0
X82.7Y-19.7
X96.0Y-24.0
X96.0Y-26.54
X96.0Y-29.08
X96.0Y-31.62
X96.0Y-34.16
X96.0Y-36.7
X96.0Y-39.24
X96.0Y-41.78
X96.0Y-44.32
X96.0Y-46.86
X100.0Y-2.6
X102.54Y-2.6
X103.2Y-85.0
X103.2Y-87.5
X103.2Y-90.0
X105.0Y-75.0
X105.08Y-2.6
X107.54Y-75.0
X107.62Y-2.6
X110.08Y-75.0
X118.0Y-85.0
X118.0Y-87.5
X118.0Y-90.0
X120.0Y-75.0
X122.54Y-75.0
X125.0Y-16.0
X125.0Y-18.54
X125.0Y-21.08
X125.0Y-23.62
X125.0Y-26.16
X125.0Y-28.7
X125.0Y-31.24
X125.0Y-33.78
X125.0Y-36.32
X125.0Y-38.86
X125.0Y-41.4
X125.0Y-43.94
X125.0Y-46.48
X125.0Y-49.02
X125.0Y-51.56
X125.08Y-75.0
X147.86Y-16.0
X147.86Y-18.54
X147.86Y-21.08
X147.86Y-23.62
X147.86Y-26.16
X147.86Y-28.7
X147.86Y-31.24
X147.86Y-33.78
X147.86Y-36.32
X147.86Y-38.86
X147.86Y-41.4
X147.86Y-43.94
X147.86Y-46.48
X147.86Y-49.02
X147.86Y-51.56
X150.4Y-16.0
X150.4Y-18.54
X150.4Y-21.08
X150.4Y-23.62
X150.4Y-26.16
X150.4Y-28.7
X150.4Y-31.24
X150.4Y-33.78
X150.4Y-36.32
X150.4Y-38.86
X150.4Y-41.4
X150.4Y-43.94
X150.4Y-46.48
X150.4Y-49.02
X150.4Y-51.56
X152.94Y-16.0
X152.94Y-18.54
X152.94Y-21.08
X152.94Y-23.62
X152.94Y-26.16
X152.94Y-28.7
X152.94Y-31.24
X152.94Y-33.78
X152.94Y-36.32
X152.94Y-38.86
X152.94Y-41.4
X152.94Y-43.94
X152.94Y-46.48
X152.94Y-49.02
X152.94Y-51.56
T11
X41.0Y-57.0
X46.0Y-9.0
X48.54Y-9.0
X51.08Y-9.0
X51.16Y-57.0
T12
X20.0Y-41.0
X30.16Y-41.0
T13
X22.0Y-23.0
X22.0Y-30.0
X34.7Y-23.0
X34.7Y-30.0
T15
X4.0Y-4.0
X4.0Y-96.0
X156.0Y-4.0
X156.0Y-96.0
T16
X8.1Y-11.11
X8.1Y-16.89
T17
X3.5Y-34.0
T3
X4.75Y-9.68G85X4.15Y-9.68
G05
X4.75Y-18.32G85X4.15Y-18.32
G05
X9.18Y-9.68G85X8.08Y-9.68
G05
X9.18Y-18.32G85X8.08Y-18.32
G05
T10
X6.25Y-29.5G85X4.75Y-29.5
G05
X6.25Y-38.5G85X4.75Y-38.5
G05
X6.5Y-33.35G85X6.5Y-34.65
G05
X12.5Y-33.0G85X12.5Y-35.0
G05
T14
X110.05Y-83.1G85X110.35Y-83.1
G05
X110.05Y-91.9G85X110.35Y-91.9
G05
X124.85Y-83.1G85X125.15Y-83.1
G05
X124.85Y-91.9G85X125.15Y-91.9
G05
M30
