%TF.GenerationSoftware,KiCad,Pcbnew,10.0.6*%
%TF.CreationDate,2026-10-11T00:30:12+02:00*%
%TF.ProjectId,b4-carrier,62342d63-6172-4726-9965-722e6b696361,rev?*%
%TF.SameCoordinates,Original*%
%TF.FileFunction,Soldermask,Bot*%
%TF.FilePolarity,Negative*%
%FSLAX46Y46*%
G04 Gerber Fmt 4.6, Leading zero omitted, Abs format (unit mm)*
G04 Created by KiCad (PCBNEW 10.0.6) date 2026-10-11 00:30:12*
%MOMM*%
%LPD*%
G01*
G04 APERTURE LIST*
G04 Aperture macros list*
%AMRoundRect*
0 Rectangle with rounded corners*
0 $1 Rounding radius*
0 $2 $3 $4 $5 $6 $7 $8 $9 X,Y pos of 4 corners*
0 Add a 4 corners polygon primitive as box body*
4,1,4,$2,$3,$4,$5,$6,$7,$8,$9,$2,$3,0*
0 Add four circle primitives for the rounded corners*
1,1,$1+$1,$2,$3*
1,1,$1+$1,$4,$5*
1,1,$1+$1,$6,$7*
1,1,$1+$1,$8,$9*
0 Add four rect primitives between the rounded corners*
20,1,$1+$1,$2,$3,$4,$5,0*
20,1,$1+$1,$4,$5,$6,$7,0*
20,1,$1+$1,$6,$7,$8,$9,0*
20,1,$1+$1,$8,$9,$2,$3,0*%
G04 Aperture macros list end*
%ADD10C,1.600000*%
%ADD11C,5.600000*%
%ADD12R,1.500000X1.500000*%
%ADD13R,1.700000X1.700000*%
%ADD14C,1.700000*%
%ADD15RoundRect,0.250000X-0.600000X-0.725000X0.600000X-0.725000X0.600000X0.725000X-0.600000X0.725000X0*%
%ADD16O,1.700000X1.950000*%
%ADD17RoundRect,0.250000X0.725000X-0.600000X0.725000X0.600000X-0.725000X0.600000X-0.725000X-0.600000X0*%
%ADD18O,1.950000X1.700000*%
%ADD19RoundRect,0.250000X-0.550000X-0.550000X0.550000X-0.550000X0.550000X0.550000X-0.550000X0.550000X0*%
%ADD20C,0.650000*%
%ADD21O,2.100000X1.000000*%
%ADD22O,1.600000X1.000000*%
%ADD23R,1.500000X2.300000*%
%ADD24O,1.500000X2.300000*%
%ADD25R,1.800000X1.800000*%
%ADD26C,1.800000*%
%ADD27C,1.710000*%
%ADD28RoundRect,0.249999X-0.850001X-0.850001X0.850001X-0.850001X0.850001X0.850001X-0.850001X0.850001X0*%
%ADD29C,2.200000*%
%ADD30R,1.905000X2.000000*%
%ADD31O,1.905000X2.000000*%
%ADD32RoundRect,0.250001X-0.949999X-0.949999X0.949999X-0.949999X0.949999X0.949999X-0.949999X0.949999X0*%
%ADD33C,2.400000*%
%ADD34RoundRect,0.250000X-1.350000X-1.350000X1.350000X-1.350000X1.350000X1.350000X-1.350000X1.350000X0*%
%ADD35C,3.200000*%
%ADD36RoundRect,0.750000X-1.250000X-0.750000X1.250000X-0.750000X1.250000X0.750000X-1.250000X0.750000X0*%
%ADD37R,1.050000X1.500000*%
%ADD38O,1.050000X1.500000*%
%ADD39R,2.000000X4.000000*%
%ADD40O,2.000000X3.300000*%
%ADD41O,3.500000X2.000000*%
%ADD42RoundRect,0.250000X-0.750000X-0.750000X0.750000X-0.750000X0.750000X0.750000X-0.750000X0.750000X0*%
%ADD43C,2.000000*%
G04 APERTURE END LIST*
D10*
%TO.C,C22*%
X120000000Y-70000000D03*
X125000000Y-70000000D03*
%TD*%
%TO.C,R21*%
X60000000Y-57000000D03*
X67620000Y-57000000D03*
%TD*%
D11*
%TO.C,H4*%
X156000000Y-96000000D03*
%TD*%
D12*
%TO.C,TP4*%
X38000000Y-82000000D03*
%TD*%
D10*
%TO.C,R23*%
X60000000Y-65000000D03*
X67620000Y-65000000D03*
%TD*%
D13*
%TO.C,J12*%
X150400000Y-16000000D03*
D14*
X150400000Y-18540000D03*
X150400000Y-21080000D03*
X150400000Y-23620000D03*
X150400000Y-26160000D03*
X150400000Y-28700000D03*
X150400000Y-31240000D03*
X150400000Y-33780000D03*
X150400000Y-36320000D03*
X150400000Y-38860000D03*
X150400000Y-41400000D03*
X150400000Y-43940000D03*
X150400000Y-46480000D03*
X150400000Y-49020000D03*
X150400000Y-51560000D03*
%TD*%
D15*
%TO.C,J9*%
X112500000Y-3000000D03*
D16*
X115000000Y-3000000D03*
X117500000Y-3000000D03*
X120000000Y-3000000D03*
%TD*%
D10*
%TO.C,R46*%
X93000000Y-73000000D03*
X100620000Y-73000000D03*
%TD*%
%TO.C,C11*%
X64000000Y-27500000D03*
X69000000Y-27500000D03*
%TD*%
%TO.C,R14*%
X77000000Y-69000000D03*
X84620000Y-69000000D03*
%TD*%
%TO.C,R48*%
X93000000Y-81000000D03*
X100620000Y-81000000D03*
%TD*%
D13*
%TO.C,J10*%
X125000000Y-16000000D03*
D14*
X125000000Y-18540000D03*
X125000000Y-21080000D03*
X125000000Y-23620000D03*
X125000000Y-26160000D03*
X125000000Y-28700000D03*
X125000000Y-31240000D03*
X125000000Y-33780000D03*
X125000000Y-36320000D03*
X125000000Y-38860000D03*
X125000000Y-41400000D03*
X125000000Y-43940000D03*
X125000000Y-46480000D03*
X125000000Y-49020000D03*
X125000000Y-51560000D03*
%TD*%
D13*
%TO.C,J11*%
X147860000Y-16000000D03*
D14*
X147860000Y-18540000D03*
X147860000Y-21080000D03*
X147860000Y-23620000D03*
X147860000Y-26160000D03*
X147860000Y-28700000D03*
X147860000Y-31240000D03*
X147860000Y-33780000D03*
X147860000Y-36320000D03*
X147860000Y-38860000D03*
X147860000Y-41400000D03*
X147860000Y-43940000D03*
X147860000Y-46480000D03*
X147860000Y-49020000D03*
X147860000Y-51560000D03*
%TD*%
D10*
%TO.C,R52*%
X108000000Y-70000000D03*
X115620000Y-70000000D03*
%TD*%
D17*
%TO.C,J3*%
X4500000Y-71000000D03*
D18*
X4500000Y-68500000D03*
X4500000Y-66000000D03*
X4500000Y-63500000D03*
X4500000Y-61000000D03*
X4500000Y-58500000D03*
X4500000Y-56000000D03*
X4500000Y-53500000D03*
%TD*%
D10*
%TO.C,R41*%
X93000000Y-53000000D03*
X100620000Y-53000000D03*
%TD*%
%TO.C,R42*%
X93000000Y-57000000D03*
X100620000Y-57000000D03*
%TD*%
%TO.C,R11*%
X77000000Y-57000000D03*
X84620000Y-57000000D03*
%TD*%
%TO.C,R2*%
X29000000Y-5500000D03*
X36620000Y-5500000D03*
%TD*%
%TO.C,C14*%
X93000000Y-89000000D03*
X98000000Y-89000000D03*
%TD*%
%TO.C,R22*%
X60000000Y-61000000D03*
X67620000Y-61000000D03*
%TD*%
D12*
%TO.C,TP10*%
X56000000Y-82000000D03*
%TD*%
%TO.C,TP9*%
X53000000Y-82000000D03*
%TD*%
D10*
%TO.C,R13*%
X77000000Y-65000000D03*
X84620000Y-65000000D03*
%TD*%
D19*
%TO.C,C5*%
X57000000Y-9000000D03*
D10*
X59000000Y-9000000D03*
%TD*%
D20*
%TO.C,J1*%
X8100000Y-11110000D03*
X8100000Y-16890000D03*
D21*
X8630000Y-9680000D03*
D22*
X4450000Y-9680000D03*
D21*
X8630000Y-18320000D03*
D22*
X4450000Y-18320000D03*
%TD*%
D10*
%TO.C,R32*%
X60000000Y-81000000D03*
X67620000Y-81000000D03*
%TD*%
D13*
%TO.C,U7*%
X70000000Y-19700000D03*
D14*
X72540000Y-19700000D03*
X75080000Y-19700000D03*
X77620000Y-19700000D03*
X80160000Y-19700000D03*
X82700000Y-19700000D03*
%TD*%
D10*
%TO.C,R34*%
X60000000Y-89000000D03*
X67620000Y-89000000D03*
%TD*%
%TO.C,R40*%
X22000000Y-66000000D03*
X29620000Y-66000000D03*
%TD*%
%TO.C,R51*%
X108000000Y-66000000D03*
X115620000Y-66000000D03*
%TD*%
D23*
%TO.C,U3*%
X45000000Y-27000000D03*
D24*
X47540000Y-27000000D03*
X50080000Y-27000000D03*
%TD*%
D10*
%TO.C,R12*%
X77000000Y-61000000D03*
X84620000Y-61000000D03*
%TD*%
D13*
%TO.C,U6*%
X96000000Y-46860000D03*
D14*
X96000000Y-44320000D03*
X96000000Y-41780000D03*
X96000000Y-39240000D03*
X96000000Y-36700000D03*
X96000000Y-34160000D03*
X96000000Y-31620000D03*
X96000000Y-29080000D03*
X96000000Y-26540000D03*
X96000000Y-24000000D03*
%TD*%
D11*
%TO.C,H3*%
X4000000Y-96000000D03*
%TD*%
D19*
%TO.C,C6*%
X39500000Y-36000000D03*
D10*
X41500000Y-36000000D03*
%TD*%
%TO.C,C16*%
X77000000Y-89000000D03*
X82000000Y-89000000D03*
%TD*%
D12*
%TO.C,TP3*%
X35000000Y-82000000D03*
%TD*%
D10*
%TO.C,R47*%
X93000000Y-77000000D03*
X100620000Y-77000000D03*
%TD*%
%TO.C,R10*%
X77000000Y-53000000D03*
X84620000Y-53000000D03*
%TD*%
%TO.C,R43*%
X93000000Y-61000000D03*
X100620000Y-61000000D03*
%TD*%
D25*
%TO.C,LED3*%
X103000000Y-58000000D03*
D26*
X105540000Y-58000000D03*
%TD*%
D10*
%TO.C,C3*%
X44000000Y-16000000D03*
X49000000Y-16000000D03*
%TD*%
D12*
%TO.C,TP8*%
X50000000Y-82000000D03*
%TD*%
D19*
%TO.C,U5*%
X64000000Y-34000000D03*
D10*
X64000000Y-36540000D03*
X64000000Y-39080000D03*
X64000000Y-41620000D03*
X64000000Y-44160000D03*
X64000000Y-46700000D03*
X64000000Y-49240000D03*
X71620000Y-49240000D03*
X71620000Y-46700000D03*
X71620000Y-44160000D03*
X71620000Y-41620000D03*
X71620000Y-39080000D03*
X71620000Y-36540000D03*
X71620000Y-34000000D03*
%TD*%
D19*
%TO.C,C9*%
X52000000Y-44000000D03*
D10*
X54000000Y-44000000D03*
%TD*%
%TO.C,C12*%
X77000000Y-81000000D03*
X82000000Y-81000000D03*
%TD*%
D13*
%TO.C,U8*%
X70000000Y-7000000D03*
D14*
X72540000Y-7000000D03*
X75080000Y-7000000D03*
X77620000Y-7000000D03*
X80160000Y-7000000D03*
X82700000Y-7000000D03*
%TD*%
D10*
%TO.C,R20*%
X60000000Y-53000000D03*
X67620000Y-53000000D03*
%TD*%
D27*
%TO.C,F1*%
X38500000Y-25000000D03*
X39700000Y-19900000D03*
%TD*%
D28*
%TO.C,D4*%
X41000000Y-57000000D03*
D29*
X51160000Y-57000000D03*
%TD*%
D30*
%TO.C,U2*%
X46000000Y-9000000D03*
D31*
X48540000Y-9000000D03*
X51080000Y-9000000D03*
%TD*%
D11*
%TO.C,H1*%
X4000000Y-4000000D03*
%TD*%
D32*
%TO.C,D5*%
X20000000Y-41000000D03*
D33*
X30160000Y-41000000D03*
%TD*%
D10*
%TO.C,R24*%
X60000000Y-69000000D03*
X67620000Y-69000000D03*
%TD*%
D25*
%TO.C,LED2*%
X37000000Y-64000000D03*
D26*
X39540000Y-64000000D03*
%TD*%
D12*
%TO.C,TP2*%
X32000000Y-82000000D03*
%TD*%
D10*
%TO.C,R53*%
X108000000Y-58000000D03*
X115620000Y-58000000D03*
%TD*%
D25*
%TO.C,LED1*%
X24000000Y-5500000D03*
D26*
X26540000Y-5500000D03*
%TD*%
D10*
%TO.C,C8*%
X39000000Y-50000000D03*
X44000000Y-50000000D03*
%TD*%
D13*
%TO.C,U9*%
X100000000Y-2600000D03*
D14*
X102540000Y-2600000D03*
X105080000Y-2600000D03*
X107620000Y-2600000D03*
%TD*%
D10*
%TO.C,R15*%
X77000000Y-73000000D03*
X84620000Y-73000000D03*
%TD*%
D15*
%TO.C,J8*%
X63000000Y-95000000D03*
D16*
X65500000Y-95000000D03*
X68000000Y-95000000D03*
X70500000Y-95000000D03*
%TD*%
D10*
%TO.C,C4*%
X52000000Y-16000000D03*
X57000000Y-16000000D03*
%TD*%
D12*
%TO.C,TP6*%
X44000000Y-82000000D03*
%TD*%
D34*
%TO.C,D2*%
X22000000Y-23000000D03*
D35*
X34700000Y-23000000D03*
%TD*%
D13*
%TO.C,JP2*%
X105000000Y-75000000D03*
D14*
X107540000Y-75000000D03*
X110080000Y-75000000D03*
%TD*%
D13*
%TO.C,J13*%
X152940000Y-16000000D03*
D14*
X152940000Y-18540000D03*
X152940000Y-21080000D03*
X152940000Y-23620000D03*
X152940000Y-26160000D03*
X152940000Y-28700000D03*
X152940000Y-31240000D03*
X152940000Y-33780000D03*
X152940000Y-36320000D03*
X152940000Y-38860000D03*
X152940000Y-41400000D03*
X152940000Y-43940000D03*
X152940000Y-46480000D03*
X152940000Y-49020000D03*
X152940000Y-51560000D03*
%TD*%
D10*
%TO.C,C20*%
X120000000Y-62000000D03*
X125000000Y-62000000D03*
%TD*%
D15*
%TO.C,J4*%
X26000000Y-95000000D03*
D16*
X28500000Y-95000000D03*
X31000000Y-95000000D03*
%TD*%
D15*
%TO.C,J5*%
X38000000Y-95000000D03*
D16*
X40500000Y-95000000D03*
X43000000Y-95000000D03*
%TD*%
D12*
%TO.C,TP1*%
X29000000Y-82000000D03*
%TD*%
D10*
%TO.C,C10*%
X47000000Y-50000000D03*
X52000000Y-50000000D03*
%TD*%
D25*
%TO.C,RV1*%
X103200000Y-85000000D03*
D26*
X103200000Y-87500000D03*
X103200000Y-90000000D03*
D36*
X110200000Y-83100000D03*
X110200000Y-91900000D03*
%TD*%
D12*
%TO.C,TP5*%
X41000000Y-82000000D03*
%TD*%
D10*
%TO.C,R33*%
X60000000Y-85000000D03*
X67620000Y-85000000D03*
%TD*%
D37*
%TO.C,U4*%
X45000000Y-44000000D03*
D38*
X46270000Y-44000000D03*
X47540000Y-44000000D03*
%TD*%
D25*
%TO.C,RV2*%
X118000000Y-85000000D03*
D26*
X118000000Y-87500000D03*
X118000000Y-90000000D03*
D36*
X125000000Y-83100000D03*
X125000000Y-91900000D03*
%TD*%
D10*
%TO.C,R45*%
X93000000Y-69000000D03*
X100620000Y-69000000D03*
%TD*%
D19*
%TO.C,C7*%
X54000000Y-33000000D03*
D10*
X56000000Y-33000000D03*
%TD*%
%TO.C,C13*%
X93000000Y-85000000D03*
X98000000Y-85000000D03*
%TD*%
D13*
%TO.C,JP3*%
X120000000Y-75000000D03*
D14*
X122540000Y-75000000D03*
X125080000Y-75000000D03*
%TD*%
D10*
%TO.C,R44*%
X93000000Y-65000000D03*
X100620000Y-65000000D03*
%TD*%
D11*
%TO.C,H2*%
X156000000Y-4000000D03*
%TD*%
D13*
%TO.C,JP1*%
X22000000Y-72000000D03*
D14*
X24540000Y-72000000D03*
%TD*%
D10*
%TO.C,R3*%
X44000000Y-64000000D03*
X51620000Y-64000000D03*
%TD*%
D15*
%TO.C,J6*%
X50000000Y-95000000D03*
D16*
X52500000Y-95000000D03*
X55000000Y-95000000D03*
%TD*%
D34*
%TO.C,D3*%
X22000000Y-30000000D03*
D35*
X34700000Y-30000000D03*
%TD*%
D17*
%TO.C,J7*%
X5000000Y-85000000D03*
D18*
X5000000Y-82500000D03*
X5000000Y-80000000D03*
X5000000Y-77500000D03*
%TD*%
D12*
%TO.C,TP7*%
X47000000Y-82000000D03*
%TD*%
D10*
%TO.C,C15*%
X77000000Y-85000000D03*
X82000000Y-85000000D03*
%TD*%
%TO.C,J2*%
X3500000Y-34000000D03*
D39*
X12500000Y-34000000D03*
D40*
X6500000Y-34000000D03*
D41*
X5500000Y-29500000D03*
X5500000Y-38500000D03*
%TD*%
D42*
%TO.C,C2*%
X13000000Y-53000000D03*
D43*
X18000000Y-53000000D03*
%TD*%
D10*
%TO.C,C21*%
X120000000Y-66000000D03*
X125000000Y-66000000D03*
%TD*%
%TO.C,R31*%
X60000000Y-77000000D03*
X67620000Y-77000000D03*
%TD*%
%TO.C,R50*%
X108000000Y-62000000D03*
X115620000Y-62000000D03*
%TD*%
%TO.C,R30*%
X60000000Y-73000000D03*
X67620000Y-73000000D03*
%TD*%
%TO.C,R16*%
X77000000Y-77000000D03*
X84620000Y-77000000D03*
%TD*%
M02*
